<svg xmlns="http://www.w3.org/2000/svg" xmlns:xlink="http://www.w3.org/1999/xlink" version="1.1" id="Layer_1" x="0px" y="0px" enable-background="new 0 0 1024 1024" xml:space="preserve" viewBox="258.02 156.16 488.83 685.14">
<path fill="#000000" opacity="1.000000" stroke="none" d=" M716.790771,559.694214   C696.372253,594.865784 668.468323,622.045105 633.226196,641.318665   C620.600403,648.223511 623.114685,658.064941 629.410583,666.080811   C634.189514,663.352600 639.152344,661.356445 644.903992,663.537659   C649.170593,665.155762 651.389526,667.823181 651.371826,672.477051   C651.354309,677.075073 649.120056,679.538757 644.730225,680.406555   C641.766479,680.992432 639.188232,682.515137 638.650146,685.604553   C638.087952,688.832397 641.132019,690.040771 643.237122,691.500488   C645.278748,692.916138 647.633972,693.870056 649.752808,695.185669   C656.471008,699.357239 659.180298,706.577515 656.805298,713.739197   C654.346069,721.154968 648.315063,724.989014 640.158691,724.321899   C633.188354,723.751770 628.140503,716.952209 627.601746,708.032532   C627.378357,704.334900 629.120056,700.925903 628.394104,697.156982   C627.556213,692.807129 625.831848,691.712769 621.561646,693.433472   C604.404907,700.346619 586.753540,705.663147 568.488220,708.758728   C562.433533,709.784851 556.346375,710.855652 550.233337,711.216614   C546.232056,711.452881 544.987366,712.984558 545.108826,716.698975   C545.683350,734.272827 554.331604,746.917542 569.069519,755.674561   C578.936279,761.537109 590.265808,763.391724 601.095947,766.566650   C612.923279,770.033936 624.781189,773.492737 635.605469,779.506592   C645.192322,784.833008 653.851196,791.346069 657.453796,802.427612   C659.938232,810.069824 657.946777,816.227966 651.511292,820.900024   C641.982056,827.818176 630.745605,830.577332 619.571289,833.124817   C599.592529,837.679443 579.261658,839.362488 558.807190,840.552917   C535.789185,841.892578 512.820190,841.228149 489.886108,840.144653   C464.529633,838.946838 439.071228,837.679077 414.303284,831.260193   C406.737183,829.299316 399.357635,826.630005 392.563202,822.612549   C382.513916,816.670776 379.700562,807.405701 384.926758,796.969238   C389.088806,788.657715 396.448975,783.745422 404.301392,779.541138   C418.962860,771.691040 434.913086,767.335022 450.970795,763.779236   C473.964325,758.687744 488.287262,745.211182 494.091919,722.503723   C494.337280,721.543762 494.539368,720.557922 494.618073,719.572632   C495.191193,712.397400 495.100647,712.254028 488.060120,711.161804   C421.778931,700.879517 366.596619,670.058105 321.750488,620.587219   C303.433807,600.381653 290.882477,576.456970 280.137787,551.562012   C270.140930,528.399780 262.682068,504.470917 259.953125,479.337280   C258.285889,463.982056 257.495056,448.587646 258.408173,433.020142   C259.423309,415.712891 260.596130,398.453003 264.739990,381.661469   C277.390686,330.399109 302.946930,286.593048 341.447632,250.265045   C362.240204,230.645905 385.332489,214.583359 411.022369,202.148148   C413.130829,201.127548 416.530273,200.476242 415.492859,197.163589   C414.421661,193.743073 416.040741,188.993866 409.501556,188.026566   C399.856293,186.599792 395.326416,177.289444 398.432098,167.738464   C401.459900,158.426987 412.198883,153.664642 421.574310,157.475739   C431.938904,161.688919 435.405426,172.287262 429.042023,181.530487   C426.970581,184.539413 427.785217,186.708588 429.149414,189.269928   C430.676666,192.137405 432.843170,190.504257 434.820160,190.078491   C440.943420,188.759735 446.452454,191.723495 449.010101,198.285873   C451.432678,204.501755 451.746246,209.200897 444.584473,213.283401   C445.796265,219.294815 449.736145,223.873062 453.086609,228.761642   C454.500427,230.824539 456.486511,229.862473 458.100586,229.405472   C470.255249,225.964096 482.460236,222.623947 495.039185,221.323410   C505.766022,220.214371 516.506409,219.398560 527.388000,220.157455   C543.503418,221.281372 559.528503,222.836227 575.082947,227.259293   C642.137939,246.327103 691.801208,286.702911 723.305054,349.050049   C735.894592,373.965088 742.449280,400.499359 745.574097,428.232483   C749.484131,462.933411 744.298889,496.125580 732.307373,528.565002   C728.307556,539.385193 722.727722,549.427368 716.790771,559.694214  M674.002930,388.414612   C679.728516,392.537506 684.733276,389.903107 688.657166,387.000641   C690.250427,385.822113 690.847473,384.084564 690.559204,382.124084   C690.250916,380.026306 688.356445,380.392944 687.018860,380.057648   C681.894104,378.772980 677.533447,376.177277 673.549377,372.763733   C671.079285,370.647369 668.469421,368.565857 664.580017,369.097229   C664.482727,370.282654 664.381409,371.255615 664.327515,372.231232   C664.235474,373.895599 664.394165,375.730499 662.188721,376.188019   C660.304260,376.578949 658.518005,376.251099 657.070801,374.877625   C655.576050,373.459045 654.845154,371.568481 654.156921,369.698975   C652.893555,366.267700 651.917603,362.718964 650.472900,359.369690   C649.201416,356.421814 647.730103,353.365601 643.721985,353.044769   C642.620911,356.433014 643.738525,359.199127 645.039368,361.912811   C646.189880,364.312897 647.502136,366.637573 648.597778,369.061188   C649.679321,371.453522 649.480286,373.754486 646.971558,375.108582   C644.555969,376.412354 642.408875,375.537201 640.821655,373.464172   C639.181824,371.322388 638.497375,368.734497 637.541504,366.243439   C636.288330,362.977325 637.623047,359.181122 635.107117,355.841675   C633.423096,356.526764 631.768921,357.228729 630.092834,357.873840   C628.162903,358.616669 626.133972,358.470581 624.162354,358.237732   C616.840759,357.372986 615.031372,358.602875 612.827148,365.806305   C611.115356,371.400696 607.969543,376.011414 602.867981,379.079712   C594.452087,384.141357 586.590820,381.325470 583.346802,372.029510   C582.474915,369.531036 581.993530,366.897919 581.292480,364.337708   C580.369263,360.966431 579.927246,357.465973 583.166321,355.241272   C586.166504,353.180634 588.848022,355.107574 591.245789,357.096802   C593.743103,359.168549 595.822266,358.663269 597.425110,355.968170   C598.759644,353.724243 600.002258,351.425659 601.262390,349.192352   C599.698303,347.786316 598.133972,348.531830 596.715393,348.474030   C591.730713,348.270966 588.727905,345.855896 587.393555,341.021576   C586.711121,338.549347 586.642761,336.092590 586.670532,333.602417   C586.743164,327.099945 590.547302,324.520020 596.033142,327.891815   C600.141602,330.417023 601.438171,328.500519 603.987183,325.660309   C610.367981,318.550659 615.303833,309.094452 626.947205,309.150696   C627.661804,309.154144 628.563049,308.676941 628.802612,307.708282   C620.710388,291.410248 618.846069,289.090393 611.795105,286.612885   C613.714233,290.911133 615.638489,295.147247 617.497925,299.411591   C618.705872,302.181824 618.830505,304.907318 616.741577,307.378784   C614.388062,310.163483 611.461304,309.078064 608.898865,308.119019   C604.357910,306.419556 600.784546,303.215210 599.257324,298.610992   C597.614929,293.659760 595.577087,289.119995 592.462219,284.857941   C587.363647,277.881805 589.193665,272.045624 597.079468,268.368378   C599.515076,267.232635 602.059021,266.691925 604.792603,266.603424   C610.372314,266.422729 615.497498,268.430634 620.839478,269.534149   C591.359375,250.501907 558.751038,241.613068 523.427124,238.385498   C525.987305,243.423996 529.659363,245.955322 532.375977,249.294815   C541.143616,260.072662 539.972534,266.416718 527.934143,272.771484   C527.344849,273.082581 526.747742,273.379639 526.164673,273.702087   C520.285095,276.953705 515.653931,281.189697 513.919678,288.065308   C513.011169,291.666962 510.528748,294.011200 506.889526,295.223846   C496.707428,298.616608 489.109924,294.922485 486.919739,284.326324   C485.005280,275.064178 481.739685,266.150391 480.510773,256.710815   C479.630463,249.949219 475.975525,247.931412 469.228394,249.043839   C462.438232,250.163345 456.052612,252.519714 449.741577,255.083038   C445.031158,256.996246 441.766632,260.691071 438.420898,264.610626   C440.830017,266.188843 442.734039,265.609039 444.634613,265.090820   C448.002502,264.172485 451.363342,263.227509 454.738892,262.338379   C462.253784,260.358978 465.479370,262.199799 467.980408,269.527252   C469.675568,274.493683 467.714539,279.412964 468.111267,284.359436   C468.387756,287.806152 468.115479,291.317078 463.683167,292.042633   C459.433105,292.738312 456.669342,290.493103 455.066986,286.792145   C453.964722,284.246399 453.189606,281.558990 451.935120,277.985901   C445.286224,282.358521 439.173340,286.969330 431.663330,288.629089   C431.386963,288.690155 431.090271,289.027039 430.956085,289.308380   C428.980286,293.450256 425.183075,294.361725 421.146698,295.139191   C415.630646,296.201660 411.199127,298.977173 408.923218,304.368439   C407.316559,308.174316 408.551147,312.160126 411.831360,312.449127   C416.252075,312.838562 417.329010,315.760498 418.094391,319.034271   C418.651794,321.418579 419.673950,323.031281 422.115997,323.490265   C424.505737,323.939392 425.725403,322.296478 426.972260,320.673767   C430.656281,315.879303 433.369415,310.549866 435.593567,304.965942   C436.844452,301.825439 438.570770,298.999878 440.805359,296.502869   C445.480621,291.278625 451.815643,291.116455 456.284302,296.421448   C461.647614,302.788605 466.706573,309.413666 471.843201,315.969452   C473.759857,318.415619 475.116730,321.319275 474.132507,324.345520   C472.641174,328.930939 473.525421,332.181152 477.475739,335.165955   C480.128876,337.170563 480.193695,340.617157 478.453949,343.345551   C476.584961,346.276672 473.613739,345.602203 470.821655,344.509613   C466.815155,342.941895 463.923218,339.933502 460.966583,336.991272   C459.804169,335.834473 458.447784,333.854553 456.876740,334.647430   C452.285309,336.964691 447.078308,338.393890 443.363617,342.222107   C444.916260,345.065735 447.423706,345.287323 449.472412,346.260315   C452.042694,347.481018 453.266724,349.550659 452.749390,352.326263   C452.208771,355.226776 450.241089,356.414825 447.293396,356.262146   C445.134918,356.150330 442.960510,356.235779 440.797791,356.334351   C430.965118,356.782532 422.729462,359.972565 419.348175,370.177582   C415.748871,381.040619 408.106659,389.199280 400.952759,397.504364   C396.095215,403.143585 394.093719,408.644287 395.977386,415.695435   C396.328674,417.010498 396.531311,418.440369 394.939819,419.133087   C393.608521,419.712555 392.325134,419.349854 391.223419,418.419495   C388.717041,416.302887 388.067566,413.428711 387.977844,410.343872   C387.928833,408.657104 388.054260,406.656281 386.167114,406.046448   C378.107300,403.442017 369.942383,400.299683 361.490173,404.188782   C354.363403,407.468048 352.218140,414.457489 350.626404,421.256744   C349.388092,426.546051 355.586273,426.672760 357.863647,429.636169   C358.258698,430.150208 358.954742,430.428345 359.369934,430.932281   C361.770538,433.846405 364.165771,433.123993 366.662048,431.058716   C368.972717,429.146942 371.323822,427.313873 374.335571,426.524384   C376.363586,425.992767 378.474976,425.540741 379.911133,427.309784   C381.403778,429.148376 380.342865,431.118073 379.219055,432.832062   C377.397644,435.610046 375.386017,438.271515 373.700531,441.127258   C372.729767,442.772064 371.353210,444.812439 373.220886,446.596771   C375.147125,448.437103 377.241364,447.223083 379.224396,446.253448   C381.307648,445.234772 383.039459,442.688843 386.213684,444.743225   C385.987793,449.162354 380.948090,452.122650 382.065063,457.209534   C385.871399,458.678589 389.681061,460.268707 390.610504,465.161133   C391.007629,467.251282 392.996063,467.598816 394.988739,467.662994   C399.685394,467.814209 403.786285,466.037628 407.742950,463.862518   C414.998169,459.874023 422.121338,459.257568 430.221130,462.125305   C441.294128,466.045715 452.161377,469.909607 460.818604,478.285248   C462.594879,480.003784 464.748260,481.388672 466.881989,482.670898   C473.006653,486.351410 477.874146,491.165009 481.551666,497.342804   C484.473297,502.250732 488.913055,504.764862 494.859589,504.595764   C522.162720,503.819061 549.178162,500.475708 576.017944,495.591766   C579.306580,494.993347 582.942383,494.812592 585.349548,491.962097   C584.785767,489.937164 583.226257,489.101593 582.002563,488.048828   C564.137451,472.679871 558.768005,451.904938 564.738220,430.999817   C570.598938,410.478088 581.344055,390.830597 604.435120,383.029144   C606.154541,382.448212 607.768494,381.501526 609.356140,380.593140   C617.313171,376.040588 624.988586,373.562256 632.738953,381.383057   C635.072937,383.738220 640.407898,384.071472 641.462463,386.561554   C644.455078,393.627533 649.425964,393.854614 655.930298,394.545258   C660.922668,395.075409 662.539307,394.280426 664.167480,390.021210   C666.075073,385.030853 669.141052,384.563110 674.002930,388.414612  M463.301697,527.226074   C417.497253,528.610962 372.373260,524.832764 329.098938,508.918701   C328.293030,510.332489 328.686768,511.088165 329.005707,511.840790   C344.458191,548.303345 364.845642,581.414246 395.039734,607.664001   C403.568756,615.078857 412.613220,621.948486 423.114349,626.584290   C426.227234,627.958435 428.113525,627.062622 429.700867,624.334167   C431.246185,621.677979 430.086090,620.093323 427.985809,618.459778   C422.956390,614.548035 417.442413,612.082275 410.970154,612.378174   C407.961548,612.515747 405.426788,611.595703 403.111450,609.778870   C398.390289,606.074341 395.921234,601.222473 395.316559,595.266479   C395.092651,593.060974 394.450470,590.830688 396.631348,589.365845   C398.450287,588.144043 400.477051,588.588989 402.345581,589.513367   C412.496552,594.534973 422.801117,599.319824 431.683258,606.499817   C435.007629,609.187073 438.917297,611.522522 440.091187,616.087158   C440.644775,618.239807 441.397614,620.148254 443.993805,619.478271   C446.536041,618.822388 445.660187,616.486084 445.468170,614.832642   C444.788544,608.980103 446.700012,604.125244 451.546021,601.001099   C457.453613,597.192444 464.130951,595.805298 471.147797,597.118896   C487.160522,600.116638 500.258118,607.298828 507.382233,622.833252   C507.978088,624.132568 508.976807,624.424500 510.188934,624.463440   C511.925598,624.519409 512.404358,623.372681 512.646484,621.918701   C512.919189,620.281433 513.346069,618.670166 513.634399,617.034973   C514.901672,609.847290 518.239075,603.891174 524.131592,599.493530   C539.624878,587.930786 568.617676,586.390564 580.167725,610.639893   C580.894592,612.165894 581.596191,613.800171 583.720703,613.530640   C585.999939,613.241455 585.911438,611.422485 586.026917,609.738098   C586.364807,604.813293 587.772095,600.289429 590.901367,596.356812   C598.713440,586.539001 608.232117,579.437378 620.840820,577.013489   C632.668579,574.739685 640.195068,578.618958 645.063232,589.665649   C645.316772,590.240906 645.758484,590.733337 646.092957,591.234985   C649.576721,589.695190 649.904602,589.594299 649.195068,587.288391   C647.863464,582.960327 649.347473,579.388245 651.675537,576.033997   C655.186646,570.975403 658.853577,566.023438 662.515015,561.071045   C665.705566,556.755615 669.358582,552.890381 673.981018,550.061401   C684.139954,543.843872 691.595581,547.645386 692.333740,559.388367   C692.349304,559.635193 692.639038,559.864746 693.367615,560.934387   C712.638672,527.103943 729.233215,493.082428 726.464417,452.594238   C717.883301,460.405518 708.453308,466.819458 698.271973,472.193115   C665.234680,489.629974 630.086243,501.218872 594.007019,510.341309   C564.452698,517.813965 534.588623,523.102295 504.071960,524.488586   C490.785980,525.092041 477.525696,526.261169 463.301697,527.226074  M307.194946,503.077118   C303.794739,491.392365 301.749054,479.419800 300.803528,467.341156   C299.110077,445.707947 300.308777,424.214447 304.607941,402.857513   C314.453735,353.946625 337.382263,312.451935 374.222137,278.755737   C389.548096,264.737579 406.515106,253.020508 425.096405,243.707870   C428.813629,241.844864 431.784760,239.288254 431.457825,235.033081   C431.095825,230.322067 429.735504,225.687729 426.869995,221.479874   C418.136200,224.856537 410.529572,229.647385 402.751801,234.104828   C362.644745,257.090118 330.973633,288.302490 308.937531,329.209717   C295.759430,353.673065 287.596802,379.628967 283.380920,406.978455   C280.070465,428.453827 278.830597,450.056824 281.613892,471.588837   C284.602142,494.706146 289.793335,517.454590 299.417236,538.831970   C311.143005,564.878296 324.543427,590.050903 344.361420,611.021606   C376.309509,644.828064 415.097412,667.725464 459.447998,681.231567   C493.684814,691.657837 528.436279,694.593323 563.868408,687.815857   C578.151123,685.083923 591.610229,679.737610 605.587524,676.080505   C616.287354,673.280945 615.569092,674.356506 612.070374,664.097351   C609.499695,656.559326 607.965149,655.747681 600.338745,658.340515   C580.410217,665.116028 559.958496,669.801331 539.000244,671.120178   C498.162872,673.689819 459.183472,666.103455 422.557556,647.475037   C383.866211,627.796021 354.639801,598.191650 332.333374,561.336914   C321.421234,543.307922 312.261230,524.529175 307.194946,503.077118  M381.822693,503.675385   C385.020081,503.084045 387.324371,501.259430 388.553467,498.311646   C390.213165,494.331085 391.630005,490.250000 393.208160,486.234467   C394.092621,483.984100 392.954987,482.851654 391.135895,481.883728   C383.465820,477.802612 377.782562,471.487488 372.329163,464.944824   C369.787354,461.895325 364.631226,460.109589 364.569122,456.173218   C364.440399,448.012421 358.138489,447.308990 353.125488,444.855347   C350.594238,443.616394 347.914032,442.653656 345.242889,441.735657   C341.759949,440.538757 339.155090,438.422668 337.433380,435.154663   C332.848083,426.451172 328.738647,417.632874 327.318359,407.702087   C326.707581,403.431549 326.958618,398.886536 324.706360,394.454315   C324.333862,397.022766 323.968414,399.116364 323.734497,401.224579   C322.290405,414.240570 318.854248,427.167175 319.590790,440.255493   C320.300873,452.872955 319.437042,465.578613 321.432526,478.105957   C321.998047,481.656219 321.343292,485.783173 325.755066,487.980225   C343.202362,496.669037 361.425629,502.506775 381.822693,503.675385  M533.450378,809.671875   C553.228760,808.906372 572.848022,806.758240 592.297180,803.004272   C562.826233,804.048889 533.367798,802.926819 503.922913,803.425659   C474.492004,803.924072 445.636658,799.248230 415.676605,793.174683   C419.361603,801.022949 425.241486,802.924500 431.169739,804.479614   C449.313538,809.239075 467.979431,809.785645 486.545746,810.516785   C501.839417,811.118958 517.187622,811.021973 533.450378,809.671875  M563.509888,627.020691   C564.550415,624.822998 566.367615,622.895020 565.893311,619.488525   C552.129578,616.453491 539.744995,620.968872 527.089355,625.905396   C529.659241,632.846497 534.901550,635.165405 540.644104,635.419067   C548.965149,635.786621 558.017822,637.059937 563.509888,627.020691  M493.641846,631.395569   C494.400818,630.391541 495.719849,629.629883 495.148621,628.048584   C487.830902,625.141663 468.212189,624.294434 462.282806,626.657593   C462.332123,629.810242 464.457367,631.732605 466.607483,633.529663   C473.830078,639.566284 483.985107,638.890991 493.641846,631.395569  M606.974854,610.505981   C604.949036,611.786621 602.265686,612.131897 601.001892,614.546448   C606.891052,619.929077 613.234924,618.911926 619.035095,616.488647   C627.685974,612.874390 634.381897,605.173401 634.579773,598.616455   C625.028015,601.381714 616.251770,605.592529 606.974854,610.505981  M697.078857,431.690033   C699.433716,438.267487 701.271179,444.937012 700.250305,452.162262   C703.171936,449.907684 703.911499,447.074280 703.476013,444.038086   C701.641296,431.247986 698.906494,418.665833 694.493896,406.482361   C693.311218,403.217072 691.495422,402.486938 688.351807,404.446747   C691.173767,413.409393 692.752380,422.560394 697.078857,431.690033  M669.326233,577.791687   C665.926819,580.587952 663.512268,584.160217 661.451172,587.978577   C660.686523,589.395203 659.524048,591.008179 660.789185,592.599121   C662.188599,594.358765 663.902100,593.037415 665.344360,592.484436   C674.315491,589.044495 676.779114,580.299622 682.261108,572.348694   C676.780823,573.058899 673.242737,574.969055 669.326233,577.791687  M725.163757,415.304810   C722.519043,405.907898 719.808044,403.278351 712.802917,403.421021   C713.064087,403.879333 713.196960,404.444611 713.550598,404.684814   C723.989624,411.774475 725.597351,421.072021 720.508606,432.103210   C720.096924,432.995605 719.973083,434.019470 719.702332,434.978516   C719.277710,436.482361 719.589600,437.674591 721.334229,439.029602   C721.242493,434.175110 722.626465,430.263489 723.820435,426.297607   C724.820129,422.976776 726.163452,419.682709 725.163757,415.304810  z"/>
<path fill="#000000" opacity="1.000000" stroke="none" d=" M583.550842,303.815765   C587.573914,305.887695 591.313171,307.705933 594.778381,309.947754   C597.890381,311.960999 599.991577,315.110535 598.503906,318.798096   C597.099182,322.280090 593.559143,321.665497 590.666931,320.844543   C587.041809,319.815521 584.986023,321.754456 583.144165,324.236664   C581.518738,326.427185 579.889648,328.242737 576.805237,328.392944   C569.867371,328.730865 567.665527,325.647919 570.413269,319.272034   C571.654358,316.391998 572.772278,313.443695 573.714355,310.453339   C575.189941,305.769043 577.841064,302.943939 583.550842,303.815765  z"/>
<path fill="#000000" opacity="1.000000" stroke="none" d=" M389.778168,430.598419   C397.372009,429.322571 403.876190,431.728241 410.424957,434.150848   C412.933838,435.079010 413.332184,436.941711 412.684784,438.822083   C411.894226,441.118408 409.717957,440.535583 408.003632,439.889496   C402.058472,437.648804 395.894043,436.656281 389.584869,436.345764   C387.822083,436.259003 385.404236,436.696503 385.095428,434.338379   C384.729309,431.542358 387.098938,430.926849 389.778168,430.598419  z"/>
<path fill="#000000" opacity="1.000000" stroke="none" d=" M547.349487,290.411438   C545.963562,291.137115 544.951904,291.862640 543.849182,292.048798   C540.649292,292.589050 537.438293,292.766113 535.739441,289.114899   C534.323364,286.071411 535.357239,283.540405 537.827271,281.656433   C540.847473,279.352875 544.017944,279.466248 546.890869,281.987488   C549.644165,284.403687 550.407349,287.150757 547.349487,290.411438  z"/>
<path fill="#000000" opacity="1.000000" stroke="none" d=" M423.205383,448.460785   C420.449829,449.951721 417.606659,451.106964 415.914154,448.173004   C414.038147,444.920929 416.824860,442.954468 419.229980,441.500610   C422.659424,439.427582 425.988098,436.577332 431.109863,438.469147   C430.350861,443.232056 426.314545,445.297180 423.205383,448.460785  z"/>
<path fill="#000000" opacity="1.000000" stroke="none" d=" M438.730103,446.024597   C436.692902,446.298004 434.830048,446.571594 434.533661,444.295593   C434.274261,442.304047 435.852539,441.366730 437.472900,440.958557   C438.989990,440.576447 441.034027,440.046295 441.784546,441.921051   C442.650604,444.084381 440.698700,445.023712 438.730103,446.024597  z"/>
<path fill="#000000" opacity="1.000000" stroke="none" d=" M665.204712,526.317688   C664.956726,531.850281 663.111389,533.990784 658.314575,533.478821   C651.718323,532.774841 647.545654,535.750916 644.433289,541.090515   C642.340698,544.680481 640.231506,548.267029 637.961121,551.745056   C636.338318,554.231018 634.130554,556.234802 630.887939,555.077393   C627.857666,553.995789 626.612549,551.189636 626.756470,548.273560   C627.301575,537.231445 631.218140,527.780579 641.093201,521.857849   C645.968933,518.933533 651.286743,516.954773 657.249817,518.016846   C661.767395,518.821472 664.206909,521.584106 665.204712,526.317688  z"/>
<path fill="#000000" opacity="1.000000" stroke="none" d=" M571.167786,561.137573   C568.026917,563.484924 566.459717,566.721252 564.087341,569.257263   C562.829163,570.602173 561.282104,571.900452 559.287415,570.881653   C557.184631,569.807617 557.422058,567.790405 558.220337,566.093140   C559.997742,562.313965 556.894104,558.506714 559.016602,554.468262   C565.066162,542.957581 576.835571,536.620361 589.978821,538.552979   C595.746521,539.401123 599.370239,542.845703 600.116821,548.449890   C600.553833,551.730286 599.470215,554.401672 595.636536,553.855591   C586.434204,552.544617 578.774719,556.053284 571.167786,561.137573  z"/>
<path fill="#000000" opacity="1.000000" stroke="none" d=" M521.220764,560.984863   C521.946533,562.149780 522.614868,562.945251 522.953796,563.862488   C523.848083,566.282593 525.559570,568.816284 522.856262,571.154236   C520.246826,573.410950 517.910522,571.811279 515.580688,570.468689   C503.612762,563.571838 495.463654,564.252258 484.909729,573.115479   C483.618073,574.200256 482.262482,574.638184 480.789764,574.052185   C478.717255,573.227600 478.388519,571.245483 478.762268,569.430481   C480.080292,563.030212 482.844757,557.481567 488.882812,554.196594   C500.351654,547.956970 512.534668,550.428223 521.220764,560.984863  z"/>
<path fill="#000000" opacity="1.000000" stroke="none" d=" M447.182648,577.051270   C442.447662,569.434082 435.804871,566.098206 427.316833,566.198853   C424.823639,566.228516 422.326904,566.227600 419.838654,566.365051   C411.946747,566.801208 408.674500,563.686523 408.964264,555.663025   C409.097748,551.966553 412.177551,551.114258 414.952484,550.836548   C424.173462,549.913940 432.785217,551.771729 440.413818,557.318726   C446.192963,561.520874 450.838440,566.618530 452.996002,573.584167   C453.527496,575.300232 453.933594,577.392212 452.182648,578.652771   C450.297943,580.009644 448.759918,578.731445 447.182648,577.051270  z"/>
<path fill="#000000" opacity="1.000000" stroke="none" d=" M694.623047,519.504395   C693.874939,522.136169 692.900452,524.249207 691.409546,526.066772   C688.682190,529.391785 684.598083,529.001282 683.181641,524.986450   C682.048218,521.773865 680.928162,518.341187 682.039978,514.778320   C684.786987,505.974945 688.925903,497.892639 694.559021,490.581482   C695.696716,489.104980 697.022095,487.830078 698.803101,487.231964   C702.257751,486.071716 705.422180,486.549011 707.787170,489.518707   C710.078979,492.396545 709.153015,495.239044 706.991699,497.639496   C701.329224,503.928131 697.571289,511.257416 694.623047,519.504395  z"/>
<path fill="#000000" opacity="1.000000" stroke="none" d=" M369.323486,538.576050   C377.277161,545.519104 381.762512,554.429199 386.404510,563.223145   C387.356262,565.026245 388.195526,567.196228 386.103302,568.572144   C384.172394,569.841980 382.582489,568.073364 381.495178,566.735352   C379.414185,564.174622 377.602600,561.390076 375.745239,558.653564   C372.338867,553.634827 368.018860,549.590820 362.855988,546.440735   C360.384399,544.932678 358.427582,543.035095 357.350708,540.261353   C356.628052,538.400146 356.512756,536.714233 358.000824,535.210327   C359.375793,533.820801 360.974762,534.108093 362.630188,534.630249   C365.051788,535.394165 367.067566,536.828918 369.323486,538.576050  z"/>
</svg>