<?xml version="1.0" encoding="UTF-8" standalone="no"?>
<!-- Generator: Adobe Illustrator 18.0.0, SVG Export Plug-In . SVG Version: 6.00 Build 0)  -->

<svg
   version="1.1"
   id="Layer_1"
   x="0px"
   y="0px"
   viewBox="0 0 96.12612 30"
   enable-background="new 0 0 320.1 99.9"
   xml:space="preserve"
   sodipodi:docname="airbnb-logo.svg"
   width="96.126122"
   height="30"
   inkscape:version="1.4.2 (ebf0e940, 2025-05-08)"
   xmlns:inkscape="http://www.inkscape.org/namespaces/inkscape"
   xmlns:sodipodi="http://sodipodi.sourceforge.net/DTD/sodipodi-0.dtd"
   xmlns="http://www.w3.org/2000/svg"
   xmlns:svg="http://www.w3.org/2000/svg"><defs
   id="defs1" /><sodipodi:namedview
   id="namedview1"
   pagecolor="#ffffff"
   bordercolor="#000000"
   borderopacity="0.25"
   inkscape:showpageshadow="2"
   inkscape:pageopacity="0.0"
   inkscape:pagecheckerboard="0"
   inkscape:deskcolor="#d1d1d1"
   inkscape:zoom="8.3283282"
   inkscape:cx="46.648018"
   inkscape:cy="10.146094"
   inkscape:window-width="1328"
   inkscape:window-height="790"
   inkscape:window-x="50"
   inkscape:window-y="25"
   inkscape:window-maximized="0"
   inkscape:current-layer="Layer_1" />
<path
   fill="#94a3b8"
   d="m 50.490977,7.7458454 c 0,1.0598004 -0.853729,1.9135283 -1.913529,1.9135283 -1.059801,0 -1.913528,-0.8537279 -1.913528,-1.9135283 0,-1.0598004 0.82429,-1.9135285 1.913528,-1.9135285 1.089239,0.029439 1.913529,0.883167 1.913529,1.9135285 z m -7.889626,3.8564956 c 0,0.176634 0,0.471022 0,0.471022 0,0 -0.912606,-1.177555 -2.855574,-1.177555 -3.208839,0 -5.711145,2.443428 -5.711145,5.828901 0,3.356035 2.472868,5.828902 5.711145,5.828902 1.972408,0 2.855574,-1.206995 2.855574,-1.206995 v 0.500461 c 0,0.235512 0.176634,0.412146 0.412145,0.412146 h 2.384551 V 11.190197 c 0,0 -2.178479,0 -2.384551,0 -0.235511,0 -0.412145,0.206072 -0.412145,0.412144 z m 0,7.094774 c -0.441584,0.647656 -1.32475,1.206995 -2.38455,1.206995 -1.88409,0 -3.326595,-1.177556 -3.326595,-3.179401 0,-2.001845 1.442505,-3.179402 3.326595,-3.179402 1.030362,0 1.972406,0.588778 2.38455,1.206996 z m 4.56303,-7.506918 h 2.826134 v 11.069026 h -2.826134 z m 42.215381,-0.294389 c -1.942967,0 -2.855573,1.177555 -2.855573,1.177555 V 5.8617558 H 83.698054 V 22.259223 c 0,0 2.178479,0 2.384551,0 0.235511,0 0.412144,-0.206074 0.412144,-0.412146 v -0.500461 0 c 0,0 0.912607,1.206995 2.855574,1.206995 3.20884,0 5.711146,-2.472867 5.711146,-5.828902 0,-3.356035 -2.502306,-5.828901 -5.681707,-5.828901 z m -0.471023,8.978864 c -1.089239,0 -1.942966,-0.55934 -2.38455,-1.206995 v -3.944813 c 0.441584,-0.588779 1.383628,-1.206994 2.38455,-1.206994 1.884091,0 3.326596,1.177555 3.326596,3.1794 0,2.001845 -1.442505,3.179402 -3.326596,3.179402 z M 82.22611,15.694347 v 6.594314 h -2.826134 v -6.270485 c 0,-1.825212 -0.588778,-2.561185 -2.17848,-2.561185 -0.853727,0 -1.736895,0.441584 -2.296234,1.08924 v 7.712992 H 72.099128 V 11.190197 h 2.237357 c 0.235511,0 0.412144,0.206072 0.412144,0.412144 v 0.471022 c 0.82429,-0.853728 1.913529,-1.177555 3.002769,-1.177555 1.236433,0 2.266793,0.353266 3.091083,1.059801 1.000922,0.824287 1.383629,1.884087 1.383629,3.738738 z M 65.239865,10.895808 c -1.942967,0 -2.855574,1.177555 -2.855574,1.177555 V 5.8617558 H 59.558157 V 22.259223 c 0,0 2.178479,0 2.384552,0 0.23551,0 0.412143,-0.206074 0.412143,-0.412146 v -0.500461 0 c 0,0 0.912606,1.206995 2.855573,1.206995 3.208841,0 5.711148,-2.472867 5.711148,-5.828902 0.02944,-3.356035 -2.472868,-5.828901 -5.681708,-5.828901 z m -0.471022,8.978864 c -1.08924,0 -1.942967,-0.55934 -2.384552,-1.206995 v -3.944813 c 0.441585,-0.588779 1.383628,-1.206994 2.384552,-1.206994 1.884089,0 3.326595,1.177555 3.326595,3.1794 0,2.001845 -1.442506,3.179402 -3.326595,3.179402 z m -7.654115,-8.978864 c 0.853729,0 1.295313,0.147194 1.295313,0.147194 v 2.620061 c 0,0 -2.355113,-0.79485 -3.827058,0.883168 v 7.74243 H 51.756849 V 11.190197 c 0,0 2.178478,0 2.384552,0 0.235509,0 0.412144,0.206072 0.412144,0.412144 v 0.471022 c 0.529899,-0.618217 1.678016,-1.177555 2.561183,-1.177555 z M 27.764148,21.258299 C 27.616953,20.905033 27.469757,20.522327 27.322564,20.198498 27.087053,19.6686 26.851541,19.168138 26.645469,18.697115 l -0.02944,-0.02944 C 24.584747,14.251841 22.406267,9.7771295 20.110033,5.3612945 L 20.021717,5.1846612 C 19.786206,4.7430776 19.550693,4.2720552 19.315183,3.801033 19.020795,3.2711327 18.726406,2.7117936 18.255382,2.1818935 17.313338,1.0043375 15.959148,0.35668175 14.516642,0.35668175 c -1.471944,0 -2.796694,0.64765575 -3.768177,1.76633395 C 10.306881,2.652916 9.9830532,3.2122548 9.6886643,3.7421551 9.4531536,4.2131775 9.2176417,4.6841998 8.9821312,5.1257834 L 8.8938157,5.3024167 C 6.6270188,9.7182516 4.4191014,14.192964 2.3878173,18.608799 l -0.029439,0.05888 c -0.2060724,0.471022 -0.4415835,0.971483 -0.6770947,1.501384 -0.1471946,0.323827 -0.294389,0.677095 -0.4415835,1.0598 -0.38270576,1.089239 -0.50046132,2.119601 -0.35326688,3.179402 0.32382798,2.207917 1.79577308,4.062567 3.82705708,4.886855 0.7654113,0.323829 1.5602615,0.471024 2.3845508,0.471024 0.2355111,0 0.5299002,-0.02944 0.7654113,-0.05888 0.9714832,-0.11775 1.9724066,-0.441583 2.9438906,-1.000923 1.206994,-0.677094 2.35511,-1.648578 3.650421,-3.061645 1.295312,1.413067 2.472868,2.384551 3.650424,3.061645 0.971483,0.55934 1.972406,0.883167 2.943891,1.000923 0.23551,0.02944 0.529898,0.05888 0.765411,0.05888 0.824288,0 1.648578,-0.147195 2.384552,-0.471024 2.060721,-0.824288 3.503228,-2.708378 3.827055,-4.886855 0.235512,-1.030362 0.117751,-2.060724 -0.264949,-3.149963 z m -13.276944,1.530823 c -1.589701,-2.001845 -2.62006,-3.885934 -2.973328,-5.475635 -0.147195,-0.677095 -0.176634,-1.265872 -0.08831,-1.795772 0.05888,-0.471023 0.23551,-0.883169 0.471022,-1.236434 0.559338,-0.79485 1.501383,-1.295312 2.590623,-1.295312 1.089238,0 2.060721,0.471022 2.590622,1.295312 0.235511,0.353265 0.412145,0.765411 0.471024,1.236434 0.08831,0.5299 0.05888,1.148116 -0.08831,1.795772 -0.353268,1.560261 -1.38363,3.444351 -2.97333,5.475635 z m 11.74612,1.383628 c -0.206072,1.530823 -1.236433,2.855574 -2.678939,3.444352 -0.706533,0.294388 -1.471945,0.382705 -2.237356,0.294388 -0.735974,-0.08831 -1.471946,-0.323827 -2.237358,-0.765411 -1.0598,-0.588778 -2.119601,-1.501384 -3.356034,-2.855572 1.942968,-2.384551 3.120524,-4.563031 3.562108,-6.505998 0.206072,-0.912605 0.235511,-1.736894 0.147194,-2.502306 -0.117751,-0.735972 -0.382707,-1.413067 -0.79485,-2.001846 -0.912606,-1.324748 -2.443429,-2.09016 -4.150885,-2.09016 -1.707456,0 -3.238278,0.79485 -4.150884,2.09016 -0.4121451,0.588779 -0.6770942,1.265874 -0.7948508,2.001846 -0.1177543,0.765412 -0.088315,1.619139 0.1471951,2.502306 0.4415837,1.942967 1.6485777,4.150885 3.5621057,6.535437 -1.206994,1.354188 -2.296233,2.266794 -3.3560336,2.855572 C 9.129325,27.617102 8.3933527,27.852614 7.6573802,27.940931 6.8625301,28.029246 6.0971185,27.911492 5.4200239,27.64654 3.9775178,27.057762 2.9471563,25.733013 2.7410841,24.20219 c -0.088317,-0.735973 -0.029439,-1.471946 0.26495,-2.296234 0.088317,-0.29439 0.2355113,-0.588779 0.3827058,-0.942045 0.2060722,-0.471024 0.4415835,-0.971485 0.6770946,-1.471946 l 0.029439,-0.05888 C 6.1265574,15.046692 8.305036,10.57198 10.571831,6.2150227 l 0.08831,-0.1766335 C 10.895658,5.5968058 11.131169,5.1257834 11.36668,4.6841998 11.602192,4.2131775 11.867141,3.771594 12.190969,3.3888884 12.809186,2.6823548 13.633474,2.2996493 14.54608,2.2996493 c 0.912606,0 1.736895,0.3827055 2.355113,1.0892391 0.323826,0.3827056 0.588777,0.8242891 0.824287,1.2953114 0.235512,0.4415836 0.471024,0.912606 0.706536,1.3541894 l 0.08831,0.1766335 c 2.237355,4.3863963 4.415833,8.8611073 6.447119,13.2475053 v 0.02944 c 0.23551,0.471024 0.441582,1.000922 0.677094,1.471946 0.147193,0.353266 0.294389,0.647655 0.382705,0.942045 0.235512,0.765411 0.323828,1.501383 0.206073,2.266794 z"
   id="path1"
   style="stroke-width:0.294389" />
</svg>
