<?xml version="1.0" encoding="UTF-8" standalone="no"?>
<!-- Generator: Adobe Fireworks CS6, Export SVG Extension by Aaron Beall (http://fireworks.abeall.com) . Version: 0.6.1  -->

<svg
   id="Untitled-Page%201"
   viewBox="0 0 107.89474 20"
   version="1.1"
   xml:space="preserve"
   x="0px"
   y="0px"
   width="107.89474"
   height="20"
   sodipodi:docname="golfnl-logo.svg"
   inkscape:version="1.4.2 (ebf0e940, 2025-05-08)"
   xmlns:inkscape="http://www.inkscape.org/namespaces/inkscape"
   xmlns:sodipodi="http://sodipodi.sourceforge.net/DTD/sodipodi-0.dtd"
   xmlns="http://www.w3.org/2000/svg"
   xmlns:svg="http://www.w3.org/2000/svg"><defs
   id="defs1" /><sodipodi:namedview
   id="namedview1"
   pagecolor="#ffffff"
   bordercolor="#000000"
   borderopacity="0.25"
   inkscape:showpageshadow="2"
   inkscape:pageopacity="0.0"
   inkscape:pagecheckerboard="0"
   inkscape:deskcolor="#d1d1d1"
   inkscape:zoom="4.0585366"
   inkscape:cx="102.6232"
   inkscape:cy="18.972356"
   inkscape:window-width="1504"
   inkscape:window-height="1027"
   inkscape:window-x="61"
   inkscape:window-y="25"
   inkscape:window-maximized="0"
   inkscape:current-layer="Untitled-Page%201" />
	<path
   id="Shape%2013"
   d="m 97.119184,17.54475 h -9.982679 c -0.156501,0 -0.283495,-0.126437 -0.283495,-0.282722 V 2.0183852 c 0,-0.1575738 0.126994,-0.2840107 0.283495,-0.2840107 h 3.742474 c 0.156544,0 0.283497,0.1264369 0.283497,0.2840107 V 13.779342 h 5.956708 c 0.156927,0 0.285902,0.127682 0.285902,0.283882 v 3.198804 c 0,0.156285 -0.128975,0.282722 -0.285902,0.282722 z m -12.685012,0 h -3.762316 c -0.09947,0 -0.191674,-0.05183 -0.244241,-0.138119 l -4.25329,-7.099066 C 75.946661,9.9287272 75.712899,9.4704359 75.504604,9.0439688 c 0.02307,0.3896183 0.04291,0.7898877 0.04291,1.1178332 v 7.100226 c 0,0.156285 -0.126608,0.282722 -0.283152,0.282722 h -3.74243 c -0.15693,0 -0.283925,-0.126437 -0.283925,-0.282722 V 2.0183852 c 0,-0.1575738 0.126995,-0.2840107 0.283925,-0.2840107 h 3.784132 c 0.09985,0 0.192061,0.052138 0.244242,0.1387199 l 4.233878,7.1202395 c 0.225259,0.3788384 0.461426,0.8358407 0.669721,1.2622221 -0.02547,-0.3883729 -0.04569,-0.7898014 -0.04569,-1.1176184 V 2.0183852 c 0,-0.1575738 0.129401,-0.2840107 0.285901,-0.2840107 h 3.740069 c 0.156543,0 0.283495,0.1264369 0.283495,0.2840107 V 17.262028 c 0,0.156285 -0.126952,0.282722 -0.283495,0.282722 z m -17.169616,0.255623 c -1.407341,0 -2.550213,-1.138577 -2.550213,-2.543728 0,-1.405237 1.142872,-2.543728 2.550213,-2.543728 1.407813,0 2.551072,1.138491 2.551072,2.543728 0,1.405151 -1.143259,2.543728 -2.551072,2.543728 z M 66.20702,5.4996966 h -5.337495 v 2.6305246 h 4.375389 c 0.158948,0 0.285557,0.1265229 0.285557,0.2840107 v 3.1975151 c 0,0.156285 -0.126609,0.28401 -0.285557,0.28401 h -4.375389 v 5.366271 c 0,0.156285 -0.126609,0.282722 -0.283495,0.282722 h -3.742947 c -0.156457,0 -0.283238,-0.126437 -0.283238,-0.282722 V 2.0183852 c 0,-0.1575738 0.126781,-0.2840107 0.283238,-0.2840107 h 9.363937 c 0.15693,0 0.286331,0.1264369 0.286331,0.2840107 V 5.2156 c 0,0.1562853 -0.129401,0.2840966 -0.286331,0.2840966 z M 54.853548,17.54475 h -9.984012 c -0.156542,0 -0.283323,-0.126437 -0.283323,-0.282722 V 2.0183852 c 0,-0.1575738 0.126781,-0.2840107 0.283323,-0.2840107 h 3.741229 c 0.156715,0 0.284741,0.1264369 0.284741,0.2840107 V 13.779342 h 5.958042 c 0.156758,0 0.283581,0.127682 0.283581,0.283882 v 3.198804 c 0,0.156285 -0.126823,0.282722 -0.283581,0.282722 z m -19.206609,0.240162 c 0.01404,-0.507381 0.03427,-0.90911 0.06391,-1.080383 0.1492,-0.864788 0.58387,-1.505606 0.601478,-1.78399 3.87e-4,-0.0024 0.0011,-0.0058 0.0011,-0.0083 v -0.350535 c 0,-0.03595 -0.03311,-0.06571 -0.07464,-0.06571 h -2.161626 c -0.04196,0 -0.07482,0.02976 -0.07482,0.06571 v 0.350535 c 0,0.0025 6.44e-4,0.0059 9.79e-4,0.0083 0.01782,0.278384 0.452063,0.919202 0.600188,1.78399 0.02963,0.171273 0.05115,0.573002 0.0652,1.080383 -4.29128,-0.25296 -7.694771,-3.801484 -7.694771,-8.1448771 -4.2e-5,-4.5070226 3.664354,-8.1616695 8.183746,-8.1616695 4.519477,0 8.18237,3.6546469 8.18237,8.1616695 0,4.3432211 -3.40173,7.8917451 -7.693114,8.1448771 z M 35.157683,5.6333487 c -2.218317,0 -4.017681,1.7931803 -4.017681,4.0066862 0,2.2126901 1.799364,4.0059551 4.017681,4.0059551 2.218617,0 4.017809,-1.793265 4.017809,-4.0059551 0,-2.2135059 -1.799192,-4.0066862 -4.017809,-4.0066862 z M 17.546567,17.800373 c -4.512691,0 -8.1834863,-3.66096 -8.1834863,-8.1603381 0,-4.5006235 3.6707953,-8.1616695 8.1834863,-8.1616695 2.827439,0 5.416906,1.4265818 6.925388,3.8166442 0.04376,0.069575 0.05579,0.1531931 0.03234,0.2322592 -0.02246,0.077993 -0.07846,0.1420268 -0.152849,0.1760411 l -3.309179,1.5395763 c -0.03801,0.017565 -0.07937,0.026756 -0.120209,0.026756 -0.08413,0 -0.167925,-0.038567 -0.223842,-0.1078408 -0.76747,-0.9711682 -1.917041,-1.5285817 -3.151649,-1.5285817 -2.215266,0 -4.017465,1.7976897 -4.017465,4.0068148 0,2.2093835 1.802199,4.0057845 4.017465,4.0057845 1.344124,0 2.578774,-0.660487 3.322235,-1.752767 h -3.667488 c -0.15796,0 -0.284827,-0.127812 -0.284827,-0.283882 V 8.4170235 c 0,-0.1574879 0.126867,-0.2838819 0.284827,-0.2838819 l 8.148227,-1.288e-4 c 0.139708,0 0.259316,0.1020858 0.281649,0.2400756 0.06494,0.4186077 0.09796,0.8445165 0.09796,1.2669465 0,4.4993781 -3.671096,8.1603381 -8.182586,8.1603381 z"
   fill="#94a3b8"
   style="stroke-width:0.429473" />
</svg>
