<?xml version="1.0" encoding="UTF-8" standalone="no"?>
<svg
   width="197"
   height="20"
   viewBox="0 0 197 20"
   fill="none"
   version="1.1"
   id="svg2"
   sodipodi:docname="leadingcourses-logo.svg"
   inkscape:version="1.4.2 (ebf0e940, 2025-05-08)"
   xmlns:inkscape="http://www.inkscape.org/namespaces/inkscape"
   xmlns:sodipodi="http://sodipodi.sourceforge.net/DTD/sodipodi-0.dtd"
   xmlns="http://www.w3.org/2000/svg"
   xmlns:svg="http://www.w3.org/2000/svg">
  <defs
     id="defs2" />
  <sodipodi:namedview
     id="namedview2"
     pagecolor="#ffffff"
     bordercolor="#000000"
     borderopacity="0.25"
     inkscape:showpageshadow="2"
     inkscape:pageopacity="0.0"
     inkscape:pagecheckerboard="0"
     inkscape:deskcolor="#d1d1d1"
     inkscape:zoom="3.6769553"
     inkscape:cx="93.419684"
     inkscape:cy="3.9434801"
     inkscape:window-width="1280"
     inkscape:window-height="754"
     inkscape:window-x="50"
     inkscape:window-y="25"
     inkscape:window-maximized="0"
     inkscape:current-layer="svg2" />
  <path
     fill-rule="evenodd"
     clip-rule="evenodd"
     d="m 152.27535,10.081966 c -1.16576,-0.3107538 -2.01787,-0.7937066 -2.55679,-1.4474641 -0.53976,-0.653546 -0.80943,-1.553049 -0.80943,-2.6991006 0,-1.2699555 0.41507,-2.2785645 1.24606,-3.0255016 0.83057,-0.7471145 1.96503,-1.120758 3.40341,-1.120758 1.36398,0 2.41138,0.3332523 3.14346,0.9990434 0.73124,0.6665054 1.178,1.6970853 1.33904,3.0913804 l -3.49682,0.3362833 c -0.0866,-0.5726157 -0.20753,-0.964866 -0.36265,-1.1769324 -0.15513,-0.2117156 -0.40619,-0.317305 -0.75322,-0.317305 -0.30982,0 -0.54864,0.093188 -0.71602,0.2801008 -0.16695,0.1865535 -0.25107,0.4484073 -0.25107,0.7843144 0,0.3362834 0.0744,0.5917506 0.22318,0.7657251 0.14878,0.1748623 0.39689,0.3054279 0.74391,0.3925842 l 1.35765,0.373479 c 1.2524,0.3484988 2.15102,0.8436671 2.69669,1.4846597 0.54568,0.6414997 0.81873,1.5161914 0.81873,2.6243714 0,1.382075 -0.41254,2.45644 -1.23676,3.221955 -0.82465,0.765893 -1.98701,1.148925 -3.48711,1.148925 -3.06273,0 -4.66848,-1.562602 -4.81769,-4.688186 h 3.57122 c 0.0494,0.622396 0.17964,1.070815 0.39055,1.344881 0.21092,0.273895 0.52075,0.410674 0.9299,0.410674 0.34702,0 0.61668,-0.102584 0.809,-0.30809 0.19233,-0.205507 0.28828,-0.495211 0.28828,-0.868817 0,-0.323349 -0.0803,-0.581648 -0.24178,-0.775109 -0.16104,-0.192615 -0.4155,-0.338945 -0.76251,-0.438868 z m -28.92814,1.559812 c -0.25447,0.566939 -0.67883,0.85005 -1.27438,0.85005 -0.59471,0 -1.01654,-0.280109 -1.26424,-0.840666 -0.24853,-0.560388 -0.37195,-1.506259 -0.37195,-2.8389236 0,-1.3448796 0.1268,-2.3001762 0.38125,-2.8671154 0.25403,-0.566563 0.67882,-0.8496733 1.27395,-0.8496733 0.59471,0 1.01655,0.2801008 1.26467,0.8401208 0.2481,0.5605567 0.37195,1.5071461 0.37195,2.8394722 0,1.3446683 -0.12723,2.3005143 -0.38125,2.8667353 z m -5.32873,2.400055 c 0.90496,1.170736 2.24443,1.756104 4.01758,1.756104 1.79765,0 3.15825,-0.600796 4.08265,-1.802514 0.92354,-1.201549 1.38553,-2.960612 1.38553,-5.2767233 0,-2.2785352 -0.4531,-4.0032722 -1.35763,-5.173818 -0.90581,-1.170364 -2.24485,-1.7555451 -4.01757,-1.7555451 -1.79807,0 -3.15868,0.6007737 -4.08223,1.8023188 -0.92397,1.2020777 -1.38596,2.9602654 -1.38596,5.2763767 0,2.2789159 0.45269,4.0038259 1.35763,5.1738009 z m -3.3662,0.270937 c 0.88044,-0.989829 1.35764,-2.38767 1.43246,-4.192975 h -3.53402 c -0.0622,0.834073 -0.20162,1.438039 -0.41846,1.811518 -0.21726,0.373479 -0.53638,0.560557 -0.95779,0.560557 -0.5461,0 -0.93919,-0.289662 -1.18139,-0.868817 -0.24135,-0.578648 -0.36223,-1.53445 -0.36223,-2.8671153 0,-1.31935 0.11158,-2.2599374 0.33476,-2.8203249 0.22318,-0.5601849 0.60147,-0.8401082 1.13447,-0.8401082 0.38422,0 0.67587,0.1773434 0.8741,0.5318526 0.19824,0.354877 0.34069,0.9685645 0.42775,1.8400438 l 3.58982,-0.392246 c -0.1864,-1.7057502 -0.69742,-3.0134214 -1.53476,-3.9222868 -0.8369,-0.9090428 -1.94347,-1.3634775 -3.31972,-1.3634775 -1.711,0 -3.01919,0.6067978 -3.92457,1.8209217 -0.90495,1.2141241 -1.35764,2.9732248 -1.35764,5.2764021 0,2.2542735 0.44001,3.9690395 1.32087,5.1459885 0.88002,1.176569 2.16961,1.765107 3.86878,1.765107 1.5246,0 2.72712,-0.495168 3.60757,-1.48504 z M 134.43069,2.1251203 h 3.64561 v 8.2931717 c 0,1.755555 -0.41846,3.091388 -1.25537,4.006488 -0.83689,0.915396 -2.05506,1.372861 -3.65448,1.372861 -1.59941,0 -2.81757,-0.457465 -3.65447,-1.372861 -0.83734,-0.9151 -1.25578,-2.250933 -1.25578,-4.006488 V 2.1251203 h 3.6456 v 8.5732807 c 0,0.622733 0.0989,1.077366 0.29756,1.363308 0.19824,0.287 0.52033,0.429992 0.96709,0.429992 0.44635,0 0.76843,-0.142992 0.96709,-0.429992 0.19824,-0.285942 0.29715,-0.740575 0.29715,-1.363308 z m 10.09315,5.5567902 c -0.25403,0.267894 -0.62303,0.4016717 -1.10615,0.4016717 h -0.98611 V 5.020348 h 1.02289 c 0.47127,0 0.83055,0.1307473 1.07909,0.3920685 0.24769,0.2614988 0.37195,0.6351639 0.37195,1.1207796 0,0.4981695 -0.12722,0.881201 -0.38167,1.1487144 z m -1.18097,3.2968955 1.65563,4.48251 h 3.79397 l -2.25076,-5.4914444 c 0.5702,-0.410675 1.01062,-0.918101 1.32044,-1.522236 0.31025,-0.6039658 0.46537,-1.2665572 0.46537,-1.9890423 0,-1.3695049 -0.41253,-2.4342796 -1.23718,-3.1939687 -0.82422,-0.759516 -1.98024,-1.1395381 -3.46808,-1.1395381 h -4.61269 V 15.461316 h 3.42201 v -4.48251 z M 158.89703,2.1251034 V 15.461358 h 8.0719 l 0.27897,-3.100434 h -4.74288 v -2.073367 h 4.16592 V 7.1871226 h -4.16592 V 5.2258799 h 4.44489 V 2.1251034 Z m 12.21922,7.9568626 c -1.16575,-0.3107538 -2.01786,-0.7937066 -2.5572,-1.4474641 -0.53976,-0.653546 -0.80943,-1.553049 -0.80943,-2.6991006 0,-1.2699555 0.4155,-2.2785645 1.24648,-3.0255016 0.83057,-0.7471145 1.96503,-1.120758 3.40341,-1.120758 1.36398,0 2.41138,0.3332523 3.14346,0.9990434 0.73124,0.6665054 1.17801,1.6970853 1.33906,3.0913804 l -3.49683,0.3362833 c -0.0867,-0.5726157 -0.20754,-0.964866 -0.36223,-1.1769324 -0.15555,-0.2117156 -0.40662,-0.317305 -0.75365,-0.317305 -0.30982,0 -0.54864,0.093188 -0.71602,0.2801008 -0.16695,0.1865535 -0.25106,0.4484073 -0.25106,0.7843144 0,0.3362834 0.0744,0.5917506 0.22317,0.7657251 0.14878,0.1748623 0.39689,0.3054279 0.74391,0.3925842 l 1.35765,0.373479 c 1.25239,0.3484988 2.15144,0.8436671 2.6967,1.4846597 0.54567,0.6414997 0.81872,1.5161914 0.81872,2.6243714 0,1.382075 -0.41253,2.45644 -1.23676,3.221955 -0.82465,0.765893 -1.98702,1.148925 -3.48711,1.148925 -3.06272,0 -4.6689,-1.562602 -4.81769,-4.688186 h 3.5708 c 0.0499,0.622396 0.18005,1.070815 0.39098,1.344881 0.21049,0.273895 0.52073,0.410674 0.92988,0.410674 0.34703,0 0.61669,-0.102584 0.80902,-0.30809 0.19232,-0.205507 0.28826,-0.495211 0.28826,-0.868817 0,-0.323349 -0.0808,-0.581648 -0.24177,-0.775109 -0.16104,-0.192615 -0.41549,-0.338945 -0.76251,-0.438868 z M 36.813672,2.122449 V 15.458695 H 44.47608 L 44.7739,12.171353 H 40.459109 V 2.122449 Z m 8.428302,13.336246 V 2.1224659 h 8.053386 v 3.1007765 h -4.445315 v 1.9612173 h 4.166008 v 3.1004343 h -4.166008 v 2.073409 h 4.742712 l -0.278885,3.100392 z m 16.033986,0.0016 -0.464947,-2.42808 h -3.087247 l -0.483544,2.42808 H 53.706288 L 57.128212,2.1240932 h 4.519706 L 64.921142,15.460344 Z M 59.285565,5.019359 58.28128,10.174575 h 1.989972 z m 10.6029,7.135805 c 0.60739,0 1.056697,-0.28011 1.348768,-0.840498 0.290803,-0.560176 0.43705,-1.4128882 0.43705,-2.558982 0,-1.1328217 -0.148783,-1.9704445 -0.446349,-2.5122343 C 70.929945,5.7020361 70.471339,5.4309679 69.851269,5.4309679 H 68.88418 v 6.7241961 z m -4.575077,3.30611 V 2.1250315 h 4.277511 c 1.922344,0 3.375937,0.5573698 4.361623,1.6719275 0.985688,1.1145578 1.478531,2.7485793 1.478531,4.9029314 0,2.1791206 -0.495802,3.8509006 -1.488253,5.0148736 -0.992027,1.164692 -2.42364,1.74651 -4.296107,1.74651 z m 14.543958,0 H 76.211741 V 2.1250315 h 3.645605 z m 7.479726,-4.3e-5 -3.198834,-6.7055892 V 15.461231 H 80.790621 V 2.1249808 h 3.235607 l 3.199257,6.7056019 V 2.1249808 h 3.348039 V 15.461231 Z m 9.671318,-4.856454 h 1.339045 v 1.662566 c -0.347023,0.199462 -0.750257,0.298707 -1.20886,0.298707 -0.706298,0 -1.224503,-0.308302 -1.552925,-0.924652 -0.328421,-0.616351 -0.492843,-1.584243 -0.492843,-2.9043118 0,-1.2821542 0.130185,-2.2227415 0.390555,-2.8203249 0.260371,-0.5977441 0.675864,-0.896447 1.246056,-0.896447 0.359702,0 0.638251,0.1245465 0.836908,0.3734664 0.198236,0.2492748 0.335178,0.641542 0.40915,1.1769071 l 3.664214,-0.354839 c -0.37196,-2.9512623 -1.971382,-4.4267071 -4.798257,-4.4267071 -1.798502,0 -3.162064,0.6007742 -4.091958,1.8023192 -0.929894,1.2019002 -1.395263,2.9602908 -1.395263,5.276402 0,2.2913001 0.471287,4.0188321 1.413861,5.1831851 0.942152,1.164353 2.331074,1.746509 4.165924,1.746509 0.880444,0 1.726219,-0.124732 2.539033,-0.37348 0.81196,-0.249084 1.55292,-0.609966 2.22245,-1.083537 V 7.8406265 h -4.68709 z"
     fill="#94a3b8"
     id="path1"
     style="stroke-width:0.422678" />
  <path
     fill-rule="evenodd"
     clip-rule="evenodd"
     d="M 11.694458,2.0303557 V 15.55608 h 6.762863 l 5.917504,2.958753 V 11.751971 L 18.457321,8.7932179 25.220182,5.4117867 V 15.55608 h 6.762862 V 2.0303557 Z"
     fill="#94a3b8"
     id="path2"
     style="stroke-width:0.422678" />
</svg>
