<?xml version="1.0" encoding="UTF-8" standalone="no"?>
<!-- Generator: Adobe Illustrator 23.0.4, SVG Export Plug-In . SVG Version: 6.00 Build 0)  -->

<svg
   version="1.0"
   id="Logo"
   x="0px"
   y="0px"
   viewBox="0 0 423.07691 128.84615"
   xml:space="preserve"
   sodipodi:version="0.32"
   inkscape:version="1.4.2 (ebf0e940, 2025-05-08)"
   width="138.46153"
   height="25"
   sodipodi:docname="skyscanner-logo.svg"
   inkscape:output_extension="org.inkscape.output.svg.inkscape"
   xmlns:inkscape="http://www.inkscape.org/namespaces/inkscape"
   xmlns:sodipodi="http://sodipodi.sourceforge.net/DTD/sodipodi-0.dtd"
   xmlns="http://www.w3.org/2000/svg"
   xmlns:svg="http://www.w3.org/2000/svg"
   xmlns:rdf="http://www.w3.org/1999/02/22-rdf-syntax-ns#"
   xmlns:cc="http://creativecommons.org/ns#"
   xmlns:dc="http://purl.org/dc/elements/1.1/"><metadata
   id="metadata2286"><rdf:RDF><cc:Work
       rdf:about=""><dc:format>image/svg+xml</dc:format><dc:type
         rdf:resource="http://purl.org/dc/dcmitype/StillImage" /></cc:Work></rdf:RDF></metadata><defs
   id="defs2284" /><sodipodi:namedview
   inkscape:window-height="659"
   inkscape:window-width="1152"
   inkscape:pageshadow="2"
   inkscape:pageopacity="0.0"
   guidetolerance="10.0"
   gridtolerance="10.0"
   objecttolerance="10.0"
   borderopacity="1.0"
   bordercolor="#666666"
   pagecolor="#ffffff"
   id="base"
   height="65px"
   width="360px"
   inkscape:showpageshadow="2"
   inkscape:pagecheckerboard="0"
   inkscape:deskcolor="#d1d1d1"
   inkscape:zoom="3.2"
   inkscape:cx="102.96875"
   inkscape:cy="25.9375"
   inkscape:window-x="50"
   inkscape:window-y="25"
   inkscape:window-maximized="0"
   inkscape:current-layer="Logo" />
<style
   type="text/css"
   id="style2243">
	.st0{fill:#94a3b8;}
</style>
<g
   id="g2245"
   transform="matrix(0.78013173,0,0,0.78013173,-214.61904,-70.553786)">
	<g
   id="g2247">
		<path
   class="st0"
   d="m 195.1,220 c 2.1,0 4.1,-0.5 6,-1.6 L 223,205.8 c 4.4,-2.5 9.5,-3.6 14.6,-3 26.6,3.1 45.2,8.1 50.7,9.7 1.1,0.3 2.4,-0.1 3.1,-1 0.9,-1.1 2,-2.9 2.9,-5.5 0.8,-2.5 0.9,-4.6 0.8,-6.1 -0.1,-1.2 -0.9,-2.3 -2.1,-2.6 -8.6,-2.5 -46.7,-12.8 -97.9,-12.8 -51.2,0 -89.3,10.3 -97.9,12.8 -1.2,0.3 -2,1.4 -2.1,2.6 -0.1,1.4 0,3.5 0.8,6.1 0.8,2.6 2,4.4 2.9,5.5 0.7,0.9 2,1.3 3.1,1 5.5,-1.6 24.2,-6.6 50.7,-9.7 5.1,-0.6 10.2,0.5 14.6,3 l 21.9,12.6 c 1.9,1.1 4,1.6 6,1.6 z"
   id="path2249"
   style="fill:#94a3b8" />
		<path
   class="st0"
   d="m 158.6,149.1 c 1.2,2.1 3.1,3.5 5.3,4.1 2.2,0.6 4.5,0.3 6.6,-0.9 2.1,-1.2 3.5,-3.1 4.1,-5.3 0.6,-2.2 0.3,-4.5 -0.9,-6.6 L 154,106.3 c -0.6,-1.1 -1.9,-1.5 -3.1,-1.4 -1.6,0.1 -3.8,0.9 -6.4,2.4 -2.6,1.5 -4.4,3 -5.3,4.3 -0.7,1 -0.9,2.3 -0.3,3.4 z"
   id="path2251"
   style="fill:#94a3b8" />
		<path
   class="st0"
   d="m 140.6,173.5 c 2.1,1.2 4.5,1.4 6.6,0.9 2.2,-0.6 4.1,-2 5.3,-4.1 1.2,-2.1 1.4,-4.5 0.9,-6.6 -0.5,-2.1 -2,-4.1 -4.1,-5.3 l -34.1,-19.7 c -1.1,-0.6 -2.4,-0.4 -3.4,0.3 -1.3,0.9 -2.8,2.7 -4.3,5.3 -1.5,2.6 -2.3,4.8 -2.4,6.4 -0.1,1.3 0.4,2.5 1.4,3.1 z"
   id="path2253"
   style="fill:#94a3b8" />
		<path
   class="st0"
   d="m 203.8,137 c 0,2.4 -1,4.6 -2.5,6.2 -1.6,1.6 -3.7,2.5 -6.2,2.5 -2.4,0 -4.6,-1 -6.2,-2.5 -1.6,-1.6 -2.5,-3.7 -2.5,-6.2 V 97.7 c 0,-1.3 0.8,-2.3 2,-2.8 1.4,-0.7 3.7,-1.1 6.7,-1.1 3,0 5.3,0.4 6.7,1.1 1.1,0.6 2,1.5 2,2.8 z"
   id="path2255"
   style="fill:#94a3b8" />
		<path
   class="st0"
   d="m 231.6,149.1 c -1.2,2.1 -3.1,3.5 -5.3,4.1 -2.2,0.6 -4.5,0.3 -6.6,-0.9 -2.1,-1.2 -3.5,-3.1 -4.1,-5.3 -0.6,-2.2 -0.3,-4.5 0.9,-6.6 l 19.7,-34.1 c 0.6,-1.1 1.9,-1.5 3.1,-1.4 1.6,0.1 3.8,0.9 6.4,2.4 2.6,1.5 4.4,3 5.3,4.3 0.7,1 0.9,2.3 0.3,3.4 z"
   id="path2257"
   style="fill:#94a3b8" />
		<path
   class="st0"
   d="m 249.6,173.5 c -2.1,1.2 -4.5,1.4 -6.6,0.9 -2.2,-0.6 -4.1,-2 -5.3,-4.1 -1.2,-2.1 -1.4,-4.5 -0.9,-6.6 0.6,-2.2 2,-4.1 4.1,-5.3 L 275,138.7 c 1.1,-0.6 2.4,-0.4 3.4,0.3 1.3,0.9 2.8,2.7 4.3,5.3 1.5,2.6 2.3,4.8 2.4,6.4 0.1,1.3 -0.4,2.5 -1.4,3.1 z"
   id="path2259"
   style="fill:#94a3b8" />
	</g>
	<g
   id="g2261">
		<path
   class="st0"
   d="m 467.1,146.4 h 16.4 c 0.6,0 1.1,0.4 1.4,0.9 l 16.3,41.8 15.8,-41.8 c 0.2,-0.6 0.8,-0.9 1.4,-0.9 h 16.1 c 1.1,0 1.8,1.1 1.3,2 l -40,91.8 c -0.2,0.5 -0.8,0.9 -1.3,0.9 h -14.2 c -1,0 -1.8,-1.1 -1.3,-2 L 492.7,207 465.9,148.4 c -0.6,-0.9 0.1,-2 1.2,-2 z"
   id="path2263"
   style="fill:#94a3b8" />
		<path
   class="st0"
   d="m 709.2,155.7 v -7.8 c 0,-0.8 0.7,-1.5 1.5,-1.5 h 14.5 c 0.8,0 1.5,0.7 1.5,1.5 v 62.3 c 0,0.8 -0.7,1.5 -1.5,1.5 h -14.5 c -0.8,0 -1.5,-0.7 -1.5,-1.5 V 202 c -3.1,4.8 -9.9,11.1 -21,11.1 -21.2,0 -32.2,-16.2 -32.2,-34.3 0,-23.6 16.4,-33.7 31.7,-33.7 10.1,-0.1 17.1,4.7 21.5,10.6 z m -35.7,23.2 c 0,11.2 6.9,19.8 18,19.8 11.1,0 18.2,-7.5 18.2,-19 0,-11.5 -6.9,-20.3 -18.7,-20.3 -11.1,0 -17.5,8.6 -17.5,19.5 z"
   id="path2265"
   style="fill:#94a3b8" />
		<path
   class="st0"
   d="m 739.8,210.2 v -62.3 c 0,-0.8 0.7,-1.5 1.5,-1.5 h 14.5 c 0.8,0 1.5,0.7 1.5,1.5 v 8.5 c 3.4,-5.9 9.8,-11.3 20.7,-11.3 11.2,0 23.7,5.5 23.7,30.8 v 34.3 c 0,0.8 -0.7,1.5 -1.5,1.5 h -14.5 c -0.8,0 -1.5,-0.7 -1.5,-1.5 v -34 c 0,-6.1 -1.5,-16.6 -12.3,-16.6 -10.8,0 -14.6,9.5 -14.6,18.3 v 32.3 c 0,0.8 -0.7,1.5 -1.5,1.5 h -14.5 c -0.9,-0.1 -1.5,-0.7 -1.5,-1.5 z"
   id="path2267"
   style="fill:#94a3b8" />
		<path
   class="st0"
   d="m 814.1,210.2 v -62.3 c 0,-0.8 0.7,-1.5 1.5,-1.5 h 14.5 c 0.8,0 1.5,0.7 1.5,1.5 v 8.5 c 3.4,-5.9 9.8,-11.3 20.7,-11.3 11.2,0 23.7,5.5 23.7,30.8 v 34.3 c 0,0.8 -0.7,1.5 -1.5,1.5 H 860 c -0.8,0 -1.5,-0.7 -1.5,-1.5 v -34 c 0,-6.1 -1.5,-16.6 -12.3,-16.6 -10.8,0 -14.6,9.5 -14.6,18.3 v 32.3 c 0,0.8 -0.7,1.5 -1.5,1.5 h -14.5 c -0.8,-0.1 -1.5,-0.7 -1.5,-1.5 z"
   id="path2269"
   style="fill:#94a3b8" />
		<path
   class="st0"
   d="m 966.4,146.4 h 14.1 c 0.8,0 1.5,0.7 1.5,1.5 v 12.9 c 2.8,-12.8 13.8,-17.2 21.8,-15.3 0.7,0.1 1.1,0.7 1.1,1.4 v 14.2 c 0,0.9 -0.8,1.6 -1.8,1.4 -14.8,-2.9 -20.8,5.1 -20.8,16.3 0,8 0,26.1 0,31.4 0,0.8 -0.7,1.5 -1.5,1.5 h -14.5 c -0.8,0 -1.5,-0.7 -1.5,-1.5 v -62.3 c 0.1,-0.8 0.8,-1.5 1.6,-1.5 z"
   id="path2271"
   style="fill:#94a3b8" />
		<path
   class="st0"
   d="m 371,160.6 c -4.5,-1.5 -6.9,-2.4 -10.5,-3.6 -3.7,-1.3 -10,-4.9 -10,-10.7 0,-5.8 4,-9.5 12.1,-9.5 7.4,0 11.5,3.6 14.2,9.4 0.4,0.8 1.3,1.1 2.1,0.7 l 11.9,-6.9 c 0.6,-0.4 0.9,-1.2 0.6,-1.9 -3.6,-7.9 -12,-17.4 -28.6,-17.4 -18.5,0 -30.1,11 -30.1,25.5 0,14.4 9.5,21.9 22.4,26.3 4.7,1.6 6.6,2.3 10.6,3.6 7.6,2.6 11.1,6 11.1,10.7 0,4.7 -3,10.3 -14.8,10.3 -10.8,0 -14.6,-5.7 -16.8,-11.1 -0.3,-0.8 -1.3,-1.2 -2.1,-0.7 l -12.5,7.2 c -0.6,0.4 -0.9,1.1 -0.6,1.8 4.8,11.8 17.9,18.8 32.6,18.8 17.3,0 31.9,-8.8 31.9,-26.6 0,-17.8 -19,-24.4 -23.5,-25.9 z"
   id="path2273"
   style="fill:#94a3b8" />
		<path
   class="st0"
   d="m 466.5,194.6 c -0.4,-0.7 -1.4,-1 -2.1,-0.5 -5.6,4.1 -12.2,4.2 -17.2,-3.5 -4.2,-6.5 -9.3,-14.5 -9.3,-14.5 l 22,-27.3 c 0.8,-1 0.1,-2.4 -1.1,-2.4 h -17.2 c -0.5,0 -0.9,0.2 -1.2,0.6 l -19,26.1 v -52.5 c 0,-0.8 -0.7,-1.5 -1.5,-1.5 h -14.5 c -0.8,0 -1.5,0.7 -1.5,1.5 v 89.6 c 0,0.8 0.7,1.5 1.5,1.5 H 420 c 0.8,0 1.5,-0.7 1.5,-1.5 v -29.1 c 0,0 9.7,15.3 13.4,21 5,7.8 12,11 19.6,11 7.2,0 11.8,-1.9 17.3,-7.3 0.5,-0.5 0.6,-1.2 0.3,-1.8 z"
   id="path2275"
   style="fill:#94a3b8" />
		<path
   class="st0"
   d="m 570.6,174 c -4.6,-1.7 -6.2,-2.3 -9.7,-3.6 -3.5,-1.3 -6.6,-3.2 -6.6,-6 0,-2.8 2.6,-5.9 7.9,-5.9 4.6,0 7.4,1.8 9,5 0.4,0.8 1.3,1 2,0.6 l 10.2,-5.9 c 0.7,-0.4 0.9,-1.3 0.5,-2 -2.8,-4.9 -8.3,-11.1 -21.6,-11.1 -16.3,0 -24.7,9.4 -24.7,19.8 0,10.4 8.5,15.3 16.3,18.4 8.8,3.6 9.4,3.8 10.5,4.2 2.7,1.1 6,2.8 6,5.9 0,3.1 -3.6,5.9 -9.1,5.9 -5.1,0 -10.9,-2.1 -13.3,-8 -0.3,-0.8 -1.3,-1.2 -2.1,-0.7 l -10.3,5.9 c -0.6,0.4 -0.9,1.1 -0.6,1.8 3,7.8 11.9,14.7 26.3,14.7 15.6,0 26,-8.3 26,-20 0,-11.7 -8,-15.8 -16.7,-19 z"
   id="path2277"
   style="fill:#94a3b8" />
		<path
   class="st0"
   d="m 629.2,160.6 c 6.5,0 11.3,2 15.8,5.2 0.7,0.5 1.7,0.3 2.1,-0.4 l 6,-10.4 c 0.4,-0.7 0.2,-1.5 -0.5,-1.9 -6.2,-4.2 -13.9,-8.1 -24.3,-8.1 -10.3,0 -19.8,2.8 -26.6,9.7 -6.8,6.8 -9.9,14.9 -9.9,24.5 0,11.6 4.8,19 10,24.2 5.2,5.2 14.6,9.6 26.6,9.6 10.8,0 18.8,-4.5 24.3,-8.1 0.6,-0.4 0.8,-1.3 0.4,-1.9 l -5.9,-10.3 c -0.4,-0.7 -1.4,-1 -2.1,-0.5 -3.9,2.8 -9.5,5.2 -15.8,5.2 -7.1,0 -20,-4 -20,-18.4 0,-14.4 12.8,-18.4 19.9,-18.4 z"
   id="path2279"
   style="fill:#94a3b8" />
		<path
   class="st0"
   d="m 923.4,198.6 c -5.8,0 -11.3,-1.4 -15.3,-4.6 -4,-3.2 -5.9,-6.5 -5.9,-10.4 H 954 c 0.8,0 1.5,-0.7 1.5,-1.5 -0.3,-15.4 -5.3,-22.6 -10.1,-27.5 -5,-5 -13.5,-9.6 -24.7,-9.6 -11.2,0 -19.8,4.1 -25.7,9.9 -5.8,5.8 -10.2,13.2 -10.2,24.4 0,11.2 4.5,18.6 10,24.1 5.5,5.5 14.5,9.6 27.4,9.6 12.2,0 22.5,-4.3 29.9,-12.8 0.6,-0.7 0.4,-1.8 -0.4,-2.2 l -10.3,-6 c -0.5,-0.3 -1.2,-0.3 -1.7,0.2 -5.1,4.8 -11.6,6.4 -16.3,6.4 z M 920.6,159 c 8.3,0 15.9,5 17.1,14 h -34.9 c 2.3,-9.7 9.5,-14 17.8,-14 z"
   id="path2281"
   style="fill:#94a3b8" />
	</g>
</g>
</svg>
