<svg width="443" height="81" viewBox="0 0 443 81" fill="none" xmlns="http://www.w3.org/2000/svg">
<path d="M327.491 0C263.711 0 212 18.1272 212 40.4957C212 62.8641 263.711 80.974 327.491 81C390.916 81 442.16 63.2631 442.991 40.4957C443.805 18.1446 391.289 0 327.491 0Z" fill="#FFE000"/>
<path d="M327.491 77.2357C260.655 77.2357 215.757 58.2412 215.757 40.4956C215.757 22.75 260.655 3.75549 327.491 3.75549C394.327 3.75549 439.234 22.7587 439.234 40.4956C439.234 58.2325 394.336 77.2357 327.491 77.2357ZM327.491 6.65238C297.571 6.65238 269.486 10.6681 248.439 17.9277C229.783 24.3893 218.64 32.8111 218.64 40.4783C218.64 48.1455 229.783 56.5586 248.439 63.0289C269.495 70.3231 297.571 74.3042 327.491 74.3042C357.412 74.3042 385.497 70.2884 406.543 63.0289C425.209 56.5672 436.351 48.1368 436.351 40.4783C436.351 32.8197 425.209 24.4066 406.543 17.9277C385.497 10.6681 357.446 6.65238 327.491 6.65238V6.65238Z" fill="#007974"/>
<path d="M258.837 44.1645C258.858 45.2242 258.636 46.2745 258.188 47.2348C257.751 48.1018 257.12 48.8558 256.344 49.4378C255.507 50.0614 254.562 50.5232 253.556 50.7995C252.408 51.1101 251.222 51.2618 250.033 51.2505C249.299 51.2512 248.567 51.1932 247.842 51.0771C247.212 50.9779 246.59 50.833 245.981 50.6434C245.51 50.497 245.05 50.3173 244.604 50.1057C244.316 49.9703 244.048 49.7951 243.808 49.5853C243.612 49.3741 243.477 49.1132 243.418 48.8307C243.308 48.3298 243.261 47.8168 243.28 47.3042C243.28 46.8619 243.28 46.5062 243.28 46.2374C243.302 46.019 243.349 45.8038 243.418 45.5956C243.458 45.4698 243.537 45.3602 243.643 45.2833C243.748 45.2212 243.868 45.1911 243.99 45.1966C244.257 45.2326 244.512 45.3307 244.734 45.4828C245.063 45.6736 245.47 45.8818 245.964 46.1159C246.525 46.3694 247.104 46.5839 247.695 46.7578C248.409 46.9652 249.151 47.0646 249.894 47.0527C250.361 47.0592 250.826 47.0067 251.279 46.8965C251.654 46.8015 252.011 46.6463 252.336 46.4369C252.623 46.246 252.856 45.9828 253.011 45.6736C253.169 45.347 253.246 44.987 253.236 44.6241C253.249 44.1929 253.101 43.7723 252.82 43.4446C252.504 43.0863 252.122 42.7919 251.695 42.5772C251.178 42.3141 250.642 42.0881 250.093 41.9007C249.505 41.6839 248.899 41.4497 248.284 41.1895C247.665 40.9335 247.061 40.644 246.474 40.3222C245.89 39.97 245.359 39.5347 244.899 39.0299C244.421 38.5256 244.039 37.9377 243.773 37.2952C243.475 36.5061 243.331 35.6669 243.349 34.8233C243.342 33.8961 243.537 32.9786 243.92 32.1346C244.301 31.3179 244.864 30.5998 245.565 30.0356C246.34 29.4267 247.22 28.9679 248.163 28.6826C249.286 28.3475 250.454 28.1838 251.626 28.1969C252.249 28.1987 252.871 28.245 253.487 28.3357C254.039 28.4181 254.585 28.5339 255.123 28.6826C255.546 28.7986 255.96 28.9465 256.361 29.1249C256.613 29.2409 256.854 29.3803 257.08 29.5413C257.209 29.6318 257.315 29.7504 257.392 29.8882C257.453 30.0177 257.496 30.1548 257.521 30.2958C257.521 30.4606 257.582 30.6601 257.608 30.8943C257.634 31.1285 257.608 31.4234 257.608 31.7616C257.608 32.0999 257.608 32.5075 257.608 32.7677C257.589 32.976 257.551 33.1821 257.495 33.3835C257.459 33.5109 257.38 33.6214 257.27 33.6958C257.198 33.7578 257.112 33.8023 257.019 33.8259C256.79 33.7947 256.571 33.7116 256.379 33.583C256.093 33.4269 255.729 33.2534 255.296 33.0713C254.802 32.8688 254.296 32.6951 253.781 32.5509C253.144 32.3716 252.486 32.2783 251.825 32.2734C251.37 32.2667 250.916 32.3192 250.474 32.4295C250.134 32.5148 249.815 32.6715 249.539 32.8892C249.305 33.0777 249.119 33.3182 248.994 33.5917C248.867 33.863 248.802 34.1593 248.803 34.459C248.793 34.8915 248.944 35.3121 249.228 35.6386C249.553 35.9947 249.94 36.2886 250.37 36.5059C250.893 36.767 251.43 36.9959 251.981 37.1911C252.587 37.408 253.193 37.6421 253.816 37.8937C254.442 38.1458 255.052 38.4354 255.643 38.761C256.239 39.0864 256.782 39.5018 257.253 39.9926C257.737 40.4954 258.125 41.0835 258.396 41.7273C258.709 42.5006 258.859 43.3303 258.837 44.1645V44.1645Z" fill="#007974"/>
<path d="M279.581 49.9409C279.586 50.0824 279.546 50.2219 279.468 50.3398C279.371 50.477 279.231 50.5778 279.07 50.626C278.828 50.7178 278.575 50.7761 278.317 50.7995C277.926 50.8456 277.533 50.8659 277.139 50.8602C276.729 50.8669 276.318 50.8467 275.91 50.7995C275.655 50.7773 275.404 50.7189 275.165 50.626C275.008 50.5749 274.872 50.4746 274.776 50.3398C274.701 50.2202 274.662 50.0818 274.663 49.9409V47.5817C273.676 48.691 272.504 49.6212 271.2 50.3311C270.082 50.9316 268.833 51.2473 267.564 51.2505C266.35 51.2866 265.143 51.0495 264.032 50.5567C263.118 50.1342 262.324 49.4903 261.72 48.6832C261.135 47.8676 260.715 46.9455 260.482 45.9685C260.206 44.6836 260.078 43.371 260.101 42.0568V29.4892C260.098 29.3453 260.144 29.2046 260.231 29.0902C260.35 28.9482 260.511 28.8479 260.69 28.804C260.971 28.7124 261.261 28.6542 261.556 28.6305C262.48 28.5496 263.41 28.5496 264.335 28.6305C264.629 28.6551 264.92 28.7133 265.201 28.804C265.381 28.851 265.544 28.9506 265.668 29.0902C265.762 29.2015 265.811 29.3436 265.807 29.4892V41.0507C265.782 41.8738 265.849 42.697 266.006 43.5053C266.122 44.024 266.337 44.5157 266.638 44.9537C266.913 45.3519 267.282 45.6765 267.711 45.8991C268.187 46.1256 268.708 46.2384 269.235 46.2287C270.037 46.2045 270.81 45.925 271.443 45.4307C272.329 44.7534 273.126 43.9666 273.815 43.0889V29.4892C273.808 29.3462 273.851 29.2054 273.936 29.0902C274.055 28.9482 274.215 28.8479 274.395 28.804C274.676 28.7133 274.966 28.6551 275.261 28.6305C276.188 28.5496 277.121 28.5496 278.048 28.6305C278.343 28.6535 278.633 28.7117 278.914 28.804C279.091 28.853 279.251 28.9524 279.373 29.0902C279.46 29.2046 279.506 29.3453 279.503 29.4892L279.581 49.9409Z" fill="#007974"/>
<path d="M301.675 49.9409C301.679 50.0864 301.63 50.2285 301.536 50.3398C301.418 50.4818 301.257 50.5821 301.077 50.626C300.797 50.7201 300.506 50.7784 300.211 50.7995C299.751 50.8454 299.289 50.8657 298.826 50.8602C298.355 50.866 297.884 50.8457 297.415 50.7995C297.12 50.7784 296.829 50.7201 296.549 50.626C296.37 50.5821 296.209 50.4818 296.09 50.3398C295.997 50.2285 295.947 50.0864 295.952 49.9409V38.2753C295.97 37.4889 295.897 36.7032 295.736 35.9335C295.614 35.4178 295.403 34.9275 295.112 34.485C294.845 34.0832 294.478 33.7575 294.047 33.5396C293.57 33.3099 293.045 33.197 292.515 33.21C291.709 33.2367 290.933 33.5192 290.299 34.0167C289.417 34.6812 288.633 35.4666 287.97 36.3498V49.9409C287.971 50.0858 287.922 50.2266 287.831 50.3398C287.705 50.4813 287.539 50.5811 287.355 50.626C287.074 50.7183 286.784 50.7765 286.489 50.7995C285.559 50.8804 284.623 50.8804 283.693 50.7995C283.398 50.7765 283.108 50.7183 282.827 50.626C282.643 50.5811 282.477 50.4813 282.351 50.3398C282.264 50.2255 282.218 50.0848 282.221 49.9409V29.4892C282.216 29.3477 282.255 29.2081 282.334 29.0902C282.433 28.9509 282.576 28.8499 282.741 28.804C282.989 28.7134 283.248 28.6551 283.511 28.6305C283.891 28.6031 284.273 28.6002 284.654 28.6219C285.059 28.6161 285.464 28.6364 285.866 28.6826C286.121 28.7033 286.372 28.7618 286.611 28.856C286.763 28.907 286.894 29.0078 286.983 29.1423C287.064 29.2592 287.107 29.3988 287.104 29.5412V31.9004C288.092 30.7911 289.263 29.8609 290.567 29.1509C291.692 28.552 292.946 28.2365 294.22 28.2316C295.429 28.1964 296.63 28.4335 297.735 28.9254C298.648 29.3455 299.443 29.9863 300.047 30.7902C300.646 31.6171 301.075 32.5544 301.311 33.5483C301.591 34.7975 301.722 36.0757 301.701 37.3559L301.675 49.9409Z" fill="#007974"/>
<path d="M323.864 49.9409C323.869 50.0865 323.819 50.2286 323.726 50.3399C323.607 50.4819 323.446 50.5822 323.267 50.6261C322.987 50.7201 322.696 50.7784 322.401 50.7996C321.941 50.8454 321.478 50.8657 321.016 50.8603C320.545 50.866 320.073 50.8458 319.605 50.7996C319.31 50.7784 319.019 50.7201 318.739 50.6261C318.559 50.5822 318.398 50.4819 318.28 50.3399C318.186 50.2286 318.137 50.0865 318.141 49.9409V38.2753C318.159 37.489 318.087 36.7032 317.925 35.9335C317.801 35.4172 317.587 34.9269 317.293 34.4851C317.027 34.0814 316.66 33.7552 316.228 33.5397C315.756 33.3123 315.237 33.1994 314.713 33.2101C313.905 33.2349 313.125 33.5175 312.488 34.0167C311.606 34.6813 310.823 35.4667 310.159 36.3498V49.9409C310.16 50.0859 310.111 50.2267 310.021 50.3399C309.895 50.4814 309.728 50.5812 309.545 50.6261C309.264 50.7184 308.973 50.7766 308.679 50.7996C308.216 50.846 307.75 50.8663 307.285 50.8603C306.817 50.8663 306.348 50.846 305.882 50.7996C305.588 50.7766 305.297 50.7184 305.017 50.6261C304.833 50.5812 304.667 50.4814 304.54 50.3399C304.453 50.2255 304.407 50.0848 304.411 49.9409V29.4892C304.406 29.3477 304.445 29.2082 304.523 29.0903C304.624 28.9529 304.767 28.8524 304.93 28.8041C305.178 28.7135 305.437 28.6552 305.701 28.6306C306.091 28.5845 306.485 28.5642 306.878 28.5699C307.286 28.5608 307.693 28.5782 308.099 28.6219C308.354 28.6426 308.605 28.7011 308.843 28.7954C308.997 28.8486 309.13 28.9487 309.224 29.0816C309.299 29.2013 309.338 29.3396 309.337 29.4806V31.8397C310.325 30.7304 311.496 29.8002 312.8 29.0903C313.925 28.4924 315.179 28.1769 316.453 28.1709C317.662 28.1357 318.863 28.3728 319.968 28.8648C320.881 29.2848 321.675 29.9256 322.28 30.7295C322.878 31.5564 323.308 32.4938 323.544 33.4876C323.824 34.7368 323.955 36.015 323.933 37.2952L323.864 49.9409Z" fill="#007974"/>
<path d="M337.976 50.7215L335.508 57.9637C335.408 58.1912 335.253 58.3898 335.056 58.5413C334.859 58.6929 334.628 58.7925 334.383 58.831C333.506 59.0298 332.606 59.1144 331.708 59.0825C331.219 59.0897 330.73 59.0636 330.244 59.0045C329.939 58.986 329.642 58.8937 329.379 58.7356C329.297 58.6892 329.227 58.6243 329.174 58.546C329.121 58.4677 329.088 58.3782 329.076 58.2846C329.075 58.0547 329.122 57.8272 329.214 57.6167L331.941 50.7648C331.757 50.644 331.598 50.4878 331.474 50.3052C331.322 50.1246 331.202 49.9193 331.119 49.698L324.098 30.903C323.934 30.5141 323.834 30.101 323.803 29.68C323.799 29.5553 323.821 29.4311 323.869 29.3158C323.917 29.2005 323.989 29.097 324.08 29.0122C324.354 28.8204 324.674 28.7065 325.007 28.6826C325.581 28.6117 326.16 28.5798 326.738 28.5872C327.396 28.5872 327.916 28.5872 328.297 28.5872C328.593 28.5978 328.885 28.6564 329.162 28.7607C329.365 28.8433 329.533 28.9934 329.638 29.1857C329.777 29.4449 329.887 29.7182 329.967 30.0009L334.764 43.6787H334.842L339.231 29.7234C339.272 29.4319 339.395 29.1582 339.586 28.9341C339.795 28.7747 340.043 28.6758 340.305 28.6479C340.878 28.5721 341.457 28.5402 342.036 28.5525C342.583 28.5476 343.13 28.5795 343.672 28.6479C344.014 28.6756 344.342 28.7922 344.625 28.9862C344.724 29.0686 344.803 29.1722 344.857 29.2892C344.911 29.4062 344.938 29.5338 344.936 29.6627C344.927 30.0025 344.865 30.3388 344.754 30.6601L337.976 50.7215Z" fill="#007974"/>
<path d="M363.949 47.0093C363.949 47.2695 363.949 47.495 363.949 47.6858C363.94 47.8472 363.914 48.0072 363.871 48.1628C363.838 48.2835 363.792 48.3999 363.732 48.5098C363.629 48.6689 363.507 48.8146 363.368 48.9434C363.07 49.2162 362.742 49.4548 362.39 49.6546C361.902 49.9559 361.386 50.2086 360.849 50.4092C360.244 50.6399 359.622 50.8226 358.988 50.9556C358.3 51.0885 357.602 51.1553 356.901 51.1551C355.556 51.1795 354.219 50.9317 352.971 50.4266C351.855 49.9544 350.869 49.2195 350.096 48.2842C349.293 47.2561 348.704 46.0761 348.365 44.8149C347.937 43.2737 347.733 41.6788 347.759 40.0793C347.722 38.3156 347.973 36.5576 348.503 34.8753C348.911 33.5293 349.599 32.2849 350.521 31.2239C351.365 30.3082 352.407 29.5989 353.568 29.1509C354.779 28.6922 356.065 28.4628 357.36 28.4744C357.999 28.4732 358.637 28.5342 359.265 28.6566C359.854 28.7722 360.433 28.9346 360.996 29.1423C361.48 29.3232 361.944 29.5528 362.381 29.8275C362.692 30.0196 362.982 30.2434 363.247 30.4953C363.389 30.6259 363.517 30.7713 363.628 30.929C363.705 31.0468 363.763 31.1755 363.801 31.3106C363.851 31.4681 363.88 31.6314 363.888 31.7963C363.888 31.9871 363.888 32.2126 363.888 32.4902C363.919 32.9171 363.847 33.3452 363.68 33.7391C363.637 33.839 363.568 33.9251 363.479 33.9878C363.39 34.0506 363.286 34.0876 363.178 34.0947C362.88 34.0613 362.602 33.9266 362.39 33.7131C362.03 33.4014 361.651 33.1117 361.256 32.8458C360.741 32.4926 360.186 32.2015 359.602 31.9784C358.864 31.7128 358.084 31.5864 357.3 31.6055C356.47 31.58 355.648 31.7714 354.915 32.1607C354.182 32.55 353.563 33.1239 353.118 33.8258C352.148 35.2309 351.663 37.2518 351.663 39.8972C351.646 41.065 351.773 42.2305 352.044 43.3665C352.24 44.2655 352.604 45.1192 353.118 45.8817C353.575 46.5316 354.192 47.0516 354.91 47.3909C356.42 48.0102 358.107 48.0381 359.637 47.469C360.24 47.2345 360.82 46.9441 361.369 46.6016C361.845 46.2634 362.234 45.9685 362.581 45.7343C362.789 45.5231 363.059 45.3834 363.351 45.3353C363.449 45.3352 363.544 45.3689 363.62 45.4307C363.709 45.5146 363.777 45.6187 363.819 45.7343C363.876 45.9147 363.914 46.1008 363.931 46.2894C363.931 46.4368 363.949 46.7057 363.949 47.0093Z" fill="#007974"/>
<path d="M382.129 50.1664C382.136 50.2464 382.123 50.3269 382.089 50.4C382.056 50.473 382.004 50.536 381.938 50.5827C381.792 50.6891 381.623 50.7604 381.445 50.7909C381.133 50.8431 380.817 50.8663 380.501 50.8602C380.182 50.8648 379.864 50.8416 379.549 50.7909C379.363 50.7684 379.187 50.6965 379.038 50.5827C378.983 50.5295 378.94 50.4645 378.913 50.3924C378.886 50.3203 378.875 50.243 378.882 50.1664V48.1108C378.022 49.036 377.001 49.7972 375.87 50.3572C374.773 50.8853 373.571 51.1581 372.355 51.1551C371.36 51.1696 370.369 51.0262 369.42 50.7301C368.593 50.482 367.827 50.0657 367.169 49.5072C366.55 48.9654 366.06 48.293 365.732 47.5384C365.38 46.6956 365.206 45.789 365.221 44.8757C365.194 43.8223 365.438 42.7797 365.931 41.8487C366.416 40.9774 367.116 40.2456 367.965 39.7237C368.962 39.106 370.062 38.6741 371.212 38.4487C372.635 38.1498 374.087 38.0073 375.541 38.0238H378.372V36.4279C378.385 35.7171 378.301 35.0079 378.121 34.3203C377.987 33.7518 377.708 33.2278 377.312 32.7992C376.916 32.3706 376.416 32.052 375.861 31.8744C375.149 31.657 374.406 31.5545 373.662 31.5708C372.816 31.556 371.973 31.6671 371.16 31.9004C370.492 32.0951 369.841 32.3416 369.212 32.6376C368.649 32.8978 368.19 33.1494 367.809 33.3662C367.554 33.5505 367.256 33.6668 366.944 33.7044C366.83 33.7048 366.718 33.6716 366.623 33.609C366.524 33.537 366.444 33.4417 366.39 33.3315C366.308 33.1869 366.255 33.0278 366.234 32.8631C366.205 32.6533 366.19 32.4418 366.19 32.23C366.186 31.9389 366.212 31.6482 366.268 31.3627C366.333 31.1177 366.469 30.8974 366.658 30.7295C366.983 30.4549 367.341 30.2218 367.723 30.0356C368.28 29.7442 368.859 29.4977 369.454 29.2984C370.156 29.0653 370.874 28.8827 371.601 28.752C372.381 28.606 373.172 28.5334 373.965 28.5352C375.242 28.5056 376.515 28.6753 377.74 29.0382C378.682 29.321 379.543 29.8267 380.25 30.5127C380.918 31.1737 381.412 31.9902 381.687 32.8892C381.999 33.983 382.148 35.117 382.129 36.2544V50.1664ZM378.372 40.7645H375.142C374.238 40.7543 373.335 40.8444 372.45 41.0334C371.774 41.1708 371.131 41.4357 370.554 41.814C370.08 42.119 369.695 42.5438 369.437 43.0456C369.197 43.5672 369.079 44.1367 369.091 44.7109C369.069 45.1848 369.149 45.658 369.323 46.099C369.498 46.54 369.764 46.939 370.104 47.2695C370.895 47.9422 371.916 48.2811 372.952 48.2149C373.921 48.2199 374.873 47.959 375.705 47.4603C376.709 46.8148 377.608 46.0193 378.372 45.1012V40.7645Z" fill="#007974"/>
<path d="M396.691 30.8683C396.691 31.2065 396.691 31.4927 396.691 31.7356C396.686 31.9185 396.654 32.0997 396.596 32.2733C396.562 32.3845 396.506 32.4878 396.431 32.5769C396.392 32.6136 396.346 32.6419 396.295 32.6598C396.245 32.6777 396.191 32.6849 396.137 32.681C395.985 32.6731 395.835 32.6378 395.696 32.5769L395.107 32.3687C394.882 32.2994 394.631 32.23 394.362 32.1693C394.078 32.1105 393.787 32.0814 393.497 32.0825C393.11 32.0845 392.728 32.1611 392.371 32.308C391.947 32.5008 391.556 32.7583 391.211 33.0713C390.744 33.4933 390.321 33.9611 389.947 34.4677C389.505 35.0488 389.012 35.76 388.484 36.5926V50.149C388.486 50.2606 388.452 50.3698 388.389 50.4613C388.31 50.5569 388.209 50.6314 388.094 50.6781C387.911 50.7493 387.719 50.7932 387.523 50.8082C387.21 50.8466 386.895 50.864 386.579 50.8602C386.275 50.8638 385.972 50.8465 385.67 50.8082C385.469 50.7919 385.271 50.7481 385.081 50.6781C384.966 50.6339 384.864 50.5589 384.787 50.4613C384.733 50.3663 384.706 50.2583 384.709 50.149V29.4892C384.702 29.3806 384.726 29.2723 384.778 29.177C384.84 29.0719 384.934 28.9897 385.047 28.9428C385.214 28.8701 385.393 28.8261 385.575 28.8127C385.863 28.7962 386.152 28.7962 386.441 28.8127C386.729 28.7957 387.018 28.7957 387.306 28.8127C387.486 28.8224 387.663 28.8666 387.826 28.9428C387.931 28.9973 388.02 29.0779 388.086 29.177C388.144 29.2699 388.172 29.3794 388.164 29.4892V32.5249C388.644 31.8126 389.176 31.1371 389.757 30.504C390.179 30.0436 390.652 29.6333 391.168 29.281C391.566 29.0017 392.008 28.7906 392.475 28.6566C392.908 28.5464 393.353 28.491 393.8 28.4918C394.022 28.4801 394.244 28.4801 394.466 28.4918C394.734 28.5123 395.001 28.5529 395.263 28.6132C395.515 28.6689 395.763 28.7383 396.007 28.8214C396.174 28.8717 396.332 28.9478 396.475 29.0469C396.546 29.1093 396.608 29.1824 396.657 29.2637C396.743 29.4995 396.785 29.7497 396.778 30.0009C396.683 30.2438 396.691 30.5213 396.691 30.8683Z" fill="#007974"/>
<path d="M411.452 44.5374C411.47 45.5084 411.272 46.4712 410.872 47.3562C410.49 48.1716 409.92 48.8849 409.21 49.4378C408.438 50.034 407.555 50.4704 406.613 50.7215C404.863 51.1921 403.032 51.2808 401.245 50.9817C400.658 50.8799 400.079 50.735 399.514 50.548C399.052 50.4025 398.603 50.2198 398.172 50.0016C397.884 49.8606 397.613 49.6859 397.366 49.4812C397.187 49.3063 397.061 49.0836 397.003 48.8394C396.916 48.473 396.878 48.0968 396.89 47.7205C396.874 47.475 396.874 47.2288 396.89 46.9833C396.913 46.8202 396.954 46.6603 397.012 46.5062C397.045 46.3986 397.112 46.3044 397.202 46.2374C397.288 46.1854 397.387 46.1584 397.488 46.1593C397.758 46.1998 398.014 46.3071 398.232 46.4715C398.561 46.671 398.959 46.9052 399.444 47.1481C400.002 47.421 400.581 47.6473 401.176 47.8246C401.909 48.041 402.671 48.1434 403.435 48.1281C404.019 48.1324 404.6 48.0654 405.167 47.9287C405.65 47.8052 406.107 47.5967 406.517 47.3129C406.889 47.0558 407.188 46.706 407.383 46.2981C407.6 45.8407 407.707 45.3386 407.695 44.8323C407.715 44.3067 407.556 43.79 407.245 43.3665C406.922 42.943 406.522 42.584 406.067 42.3084C405.543 41.9902 404.993 41.7175 404.422 41.4931L402.561 40.7645C401.914 40.5091 401.281 40.2196 400.665 39.8972C400.054 39.5693 399.495 39.1544 399.003 38.6656C398.464 38.1403 398.04 37.5078 397.76 36.8087C397.48 36.1096 397.348 35.3594 397.375 34.6065C397.373 33.808 397.532 33.0173 397.843 32.282C398.167 31.5422 398.652 30.8843 399.262 30.3565C399.947 29.7559 400.74 29.2935 401.6 28.9948C402.657 28.6391 403.767 28.4689 404.881 28.4918C405.432 28.492 405.982 28.5355 406.526 28.6219C407.03 28.7043 407.527 28.8202 408.015 28.9688C408.406 29.0851 408.785 29.2361 409.149 29.4198C409.399 29.5379 409.637 29.6802 409.859 29.8448C409.985 29.9308 410.094 30.0397 410.18 30.1657C410.233 30.2605 410.271 30.3629 410.292 30.4693C410.292 30.582 410.292 30.7295 410.361 30.8943C410.372 31.0994 410.372 31.305 410.361 31.5101C410.361 31.7703 410.361 31.9958 410.361 32.1866C410.345 32.3508 410.304 32.5115 410.24 32.6636C410.203 32.7671 410.137 32.8575 410.05 32.9238C409.976 32.9743 409.888 33.0015 409.799 33.0019C409.58 32.9739 409.374 32.887 409.201 32.7504C408.88 32.547 408.544 32.3672 408.197 32.2126C407.726 31.9981 407.24 31.8183 406.743 31.6749C406.123 31.4996 405.482 31.4149 404.838 31.4234C404.253 31.4098 403.67 31.4829 403.106 31.6402C402.667 31.7596 402.257 31.9693 401.903 32.256C401.599 32.5177 401.357 32.8435 401.193 33.2101C401.035 33.586 400.956 33.9904 400.959 34.3983C400.937 34.9363 401.099 35.4657 401.418 35.8988C401.744 36.3249 402.146 36.6866 402.604 36.9656C403.133 37.3066 403.692 37.597 404.275 37.8329L406.18 38.5875C406.829 38.8477 407.47 39.1339 408.102 39.4548C408.717 39.7638 409.285 40.158 409.79 40.6257C410.328 41.1277 410.751 41.7403 411.03 42.4215C411.31 43.1026 411.439 43.8363 411.409 44.5721L411.452 44.5374Z" fill="#007974"/>
<path d="M7.7466 43.8676H4.31165V51.7059H0V30.2941H7.77534C10.2474 30.2941 12.1541 30.8578 13.4955 31.9853C14.8369 33.1127 15.5076 34.7059 15.5076 36.7647C15.5076 38.2255 15.1962 39.4461 14.5734 40.4265C13.9602 41.3971 13.026 42.1716 11.7708 42.75L16.298 51.5V51.7059H11.6702L7.7466 43.8676ZM4.31165 40.2941H7.78971C8.87242 40.2941 9.71079 40.0147 10.3048 39.4559C10.8989 38.8873 11.1959 38.1078 11.1959 37.1176C11.1959 36.1078 10.9133 35.3137 10.348 34.7353C9.79223 34.1569 8.9347 33.8676 7.77534 33.8676H4.31165V40.2941Z" fill="white"/>
<path d="M31.3888 42.4265H23.1104V48.1618H32.826V51.7059H18.7988V30.2941H32.7973V33.8676H23.1104V38.9706H31.3888V42.4265Z" fill="white"/>
<path d="M52.3722 51.7059H48.0605L39.6672 37.6176V51.7059H35.3555V30.2941H39.6672L48.0749 44.4118V30.2941H52.3722V51.7059Z" fill="white"/>
<path d="M71.4584 33.8676H65.0484V51.7059H60.7368V33.8676H54.413V30.2941H71.4584V33.8676Z" fill="white"/>
<path d="M93.2118 47.2941H85.652L84.2148 51.7059H79.6301L87.4198 30.2941H91.4153L99.2481 51.7059H94.6634L93.2118 47.2941ZM86.8162 43.7206H92.0477L89.4175 35.7059L86.8162 43.7206Z" fill="white"/>
<path d="M119.384 46.0882C119.384 45.2549 119.096 44.6176 118.521 44.1765C117.946 43.7255 116.911 43.2549 115.417 42.7647C113.922 42.2647 112.739 41.7745 111.867 41.2941C109.491 39.9804 108.303 38.2108 108.303 35.9853C108.303 34.8284 108.619 33.799 109.251 32.8971C109.893 31.9853 110.808 31.2745 111.996 30.7647C113.194 30.2549 114.535 30 116.02 30C117.515 30 118.847 30.2794 120.016 30.8382C121.185 31.3873 122.09 32.1667 122.732 33.1765C123.384 34.1863 123.71 35.3333 123.71 36.6176H119.398C119.398 35.6373 119.096 34.8775 118.492 34.3382C117.889 33.7892 117.041 33.5147 115.949 33.5147C114.895 33.5147 114.075 33.7451 113.491 34.2059C112.906 34.6569 112.614 35.2549 112.614 36C112.614 36.6961 112.954 37.2794 113.635 37.75C114.325 38.2206 115.335 38.6618 116.667 39.0735C119.12 39.8284 120.907 40.7647 122.028 41.8824C123.149 43 123.71 44.3922 123.71 46.0588C123.71 47.9118 123.024 49.3676 121.654 50.4265C120.284 51.4755 118.44 52 116.121 52C114.511 52 113.045 51.701 111.723 51.1029C110.401 50.4951 109.39 49.6667 108.691 48.6176C108.001 47.5686 107.656 46.3529 107.656 44.9706H111.982C111.982 47.3333 113.362 48.5147 116.121 48.5147C117.146 48.5147 117.946 48.3039 118.521 47.8824C119.096 47.451 119.384 46.8529 119.384 46.0882Z" fill="white"/>
<path d="M160.01 51.7059H155.698V30.2941H160.01V51.7059Z" fill="white"/>
<path d="M168.331 48.1618H177.486V51.7059H164.02V30.2941H168.331V48.1618Z" fill="white"/>
<path d="M191.563 42.4265H183.284V48.1618H193V51.7059H178.973V30.2941H192.971V33.8676H183.284V38.9706H191.563V42.4265Z" fill="white"/>
<path d="M133.397 30L139.5 45.956L145.57 30H152V52H147.088V45.9863L147.578 35.6058L141.165 52H137.803L131.406 35.6209L131.896 45.9863V52H127V30H133.397Z" fill="white"/>

</svg>
